<svg id="Layer_1" xmlns="http://www.w3.org/2000/svg" viewBox="0 0 29 29"><style>.st0,.st1{fill:#fff}.st1{fill-rule:evenodd;clip-rule:evenodd}</style><g id="Page-1"><g id="Desktop-HD" transform="translate(-679 -466)"><g id="icon-moderator" transform="translate(679 466)"><path id="Fill-1" class="st1" d="M24.59 6.95c-1.11-.16-2.24-.27-3.34-.5-2.25-.47-4.31-1.39-6.2-2.68a.934.934 0 0 0-.24-.14c-.06.02-.13.06-.24.14-1.89 1.3-3.96 2.22-6.2 2.68-1.1.23-2.22.34-3.34.5-.21.03-.3.12-.3.33 0 .48.01 1.43.01 1.45.02.5.03 1.56.09 2.34.11 1.45.38 2.87.79 4.26.65 2.18 1.66 4.17 3.13 5.91 1.58 1.87 3.53 3.26 5.72 4.32a.762.762 0 0 0 .68 0c2.19-1.07 4.14-2.45 5.72-4.32 1.47-1.74 2.49-3.73 3.13-5.91.41-1.39.68-2.81.79-4.26.06-.78.06-1.55.08-2.33 0-.04.02-.98.02-1.46.01-.21-.09-.3-.3-.33"/></g></g></g></svg>