<svg width="87" height="24" viewBox="0 0 87 24" xmlns="http://www.w3.org/2000/svg" xmlns:xlink="http://www.w3.org/1999/xlink"><title>diamant-bar-03</title><defs><linearGradient x1="50%" y1="5.469%" x2="50%" y2="100.001%" id="c"><stop stop-color="#13C08F" offset="0%"/><stop stop-color="#018F62" offset="100%"/></linearGradient><path d="M2 0h83a2 2 0 0 1 2 2v10a2 2 0 0 1-2 2H2a2 2 0 0 1-2-2V2a2 2 0 0 1 2-2z" id="b"/><filter x="-1.1%" y="-7.1%" width="102.3%" height="128.6%" filterUnits="objectBoundingBox" id="a"><feOffset dy="2" in="SourceAlpha" result="shadowOffsetOuter1"/><feColorMatrix values="0 0 0 0 0 0 0 0 0 0 0 0 0 0 0 0 0 0 0.3 0" in="shadowOffsetOuter1"/></filter><linearGradient x1="50%" y1="5.469%" x2="50%" y2="100.001%" id="f"><stop stop-color="#28D6A5" offset="0%"/><stop stop-color="#0FB07D" offset="100%"/></linearGradient><rect id="e" x="4" y="4" width="79" height="14" rx="2"/><filter x="-1.3%" y="-7.1%" width="102.5%" height="128.6%" filterUnits="objectBoundingBox" id="d"><feOffset dy="2" in="SourceAlpha" result="shadowOffsetOuter1"/><feColorMatrix values="0 0 0 0 0 0 0 0 0 0 0 0 0 0 0 0 0 0 0.3 0" in="shadowOffsetOuter1"/></filter><linearGradient x1="17.16%" y1="0%" x2="84.201%" y2="100%" id="i"><stop stop-color="#13C08F" offset="0%"/><stop stop-color="#36FFC4" offset="39.769%"/><stop stop-color="#018F62" offset="100%"/></linearGradient><path id="h" d="M7.778 10.706L3.11 13l.778-4.588L0 5.352l5.444-.764L7 0l2.333 4.588 5.445.765-3.89 3.059.779 4.588z"/><filter x="-7.1%" y="-7.7%" width="119.8%" height="130.8%" filterUnits="objectBoundingBox" id="g"><feOffset dy="2" in="SourceAlpha" result="shadowOffsetOuter1"/><feColorMatrix values="0 0 0 0 0 0 0 0 0 0 0 0 0 0 0 0 0 0 0.3 0" in="shadowOffsetOuter1"/></filter><path id="k" d="M24.778 10.706L20.11 13l.778-4.588L17 5.352l5.444-.764L24 0l2.333 4.588 5.445.765-3.89 3.059.779 4.588z"/><filter x="-7.1%" y="-7.7%" width="119.8%" height="130.8%" filterUnits="objectBoundingBox" id="j"><feOffset dy="2" in="SourceAlpha" result="shadowOffsetOuter1"/><feColorMatrix values="0 0 0 0 0 0 0 0 0 0 0 0 0 0 0 0 0 0 0.3 0" in="shadowOffsetOuter1"/></filter></defs><g fill="none" fill-rule="evenodd"><use fill="#000" filter="url(#a)" xlink:href="#b"/><use fill="url(#c)" xlink:href="#b"/><use fill="#000" filter="url(#d)" xlink:href="#e"/><use fill="url(#f)" xlink:href="#e"/><g transform="translate(28 9)"><use fill="#000" filter="url(#g)" xlink:href="#h"/><use fill="url(#i)" xlink:href="#h"/></g><g transform="translate(28 9)"><use fill="#000" filter="url(#j)" xlink:href="#k"/><use fill="url(#i)" xlink:href="#k"/></g></g></svg>