<svg id="Layer_1" xmlns="http://www.w3.org/2000/svg" viewBox="0 0 29 29"><style>.st0{fill:#fff}.st1,.st2{fill-rule:evenodd;clip-rule:evenodd;fill:#fff}.st2{fill:url(#Star_1_)}</style><g id="Page-1-Copy-2"><g id="Ingame-chat-focussed" transform="translate(-67 -950)"><linearGradient id="Star_1_" gradientUnits="userSpaceOnUse" x1="-291.119" y1="1360.248" x2="-289.77" y2="1358.899" gradientTransform="matrix(16.7233 0 0 -16.0031 4937.768 22722.725)"><stop offset="0" stop-color="#ffef78"/><stop offset=".28" stop-color="#fff18c"/><stop offset=".491" stop-color="#d8be3c"/><stop offset="1" stop-color="#7e6d19"/></linearGradient><path id="Star" class="st2" d="M81.5 972.24l-5.51 2.9c-.66.35-1.48.09-1.82-.57-.14-.26-.19-.56-.14-.86l1.05-6.14-4.46-4.35c-.53-.52-.54-1.37-.02-1.91.21-.21.48-.35.77-.39l6.16-.9 2.76-5.58a1.35 1.35 0 0 1 2.42 0l2.76 5.58 6.16.9c.74.11 1.25.79 1.14 1.53-.04.29-.18.57-.39.77l-4.46 4.35 1.05 6.14c.13.73-.37 1.43-1.1 1.56-.29.05-.59 0-.86-.14l-5.51-2.89z"/></g></g></svg>