<svg id="Layer_1" xmlns="http://www.w3.org/2000/svg" viewBox="0 0 166.4 310"><style>.st0{fill:#010101}.st1{fill:#19b35e}.st2{fill:#fff}.st3{fill:#f58024}.st4{fill:#ed2045}.st5{fill:#b3598d}.st6{fill:#cbdb29}.st7{fill:#02b7bf}.st8{fill:#358540}.st9{fill:#f3ea1d}.st10{fill:#f05a73}.st11{fill:#b83f59}.st12{fill:#f7a3a5}.st13{fill:#828182}.st14{fill:#bbb}.st15{fill:#cfd928}.st16{fill:#e1363e}.st17{fill:#148a44}.st18{fill:#da1f26}.st19{fill:#fce644}.st20{fill:#a05f8c}.st21{fill:#bd6229}.st22{fill:#8d431f}.st23{fill:#e87fb3}.st24{fill:#499049}.st25{fill:#56a656}.st26{fill:#6fc171}.st27{fill:#f68c33}.st28{clip-path:url(#SVGID_2_);fill:#b16327}.st29{fill:#139f57}.st30{fill:#117940}.st31{fill:#3cb76b}.st32{fill:#149b53}.st33{fill:#f68a20}.st34{fill:#3bb05d}.st35{fill:#07b4c0}.st36{fill:#f3935f}.st37{fill:#eb83ac}.st38{fill:#f2e36d}.st39{fill:#93d1d6}.st40{fill:#f9a970}.st41{fill:#b56a43}.st42{fill:#92d5e5}.st43{fill:#f1d351}.st44{fill:#b79f36}.st45{fill:#fef6ab}.st46{fill:#ba7c38}</style><g id="_x36_ohrQN_1_"><path class="st21" d="M80.7 101.6h.8l3.3 2.4c10.3 6.7 19.9 14.1 27.2 24.1 6.6 9 6.3 18.7.3 29.9 11 .8 21.6 5.7 25.6 15.9s-1.1 19.2-8.6 27.4c2.3.4 8.2.7 10 1.1 14.8 3 25.4 14.6 26.8 29.5 1.4 14.3-6.3 28-19.4 33-5.2 2-11 2.9-16.6 3-30.6.3-61.3-.2-91.9.2-17.6.2-33.9-7.7-38-28.1 0-.1-.2-.2-.3-.3v-10c.3-.6.6-1.3.7-1.9 3.1-13.7 12-21.6 25.3-25.1 2.3-.6 10.5-1 13.1-1.5-13.7-16.2-6.4-41.4 16.9-43.3-1.7-3.4-9.4-6.6-10.8-10-2.4-5.9-.9-8.8 5.1-10.7 3.8-1.2 7.7-2.1 11.6-3.3 8.1-2.6 14.3-7.7 16.6-16 1.4-5.3 1.6-10.9 2.3-16.3z"/><path class="st22" d="M129.9 201s-22.3 6.6-48.8 5.6c0 0 79 14.3 73.5 2.6-2-4.2-12.1-7.1-17.2-7.7-5.1-.6-7.5-.5-7.5-.5zm-74.2-43.1s20.6 8.8 45.1 7.5c0 0-60.6 17.8-62.5.9 0 0 5.8-6.8 10.4-7.6 4.8-.9 7-.8 7-.8z"/></g><path class="st0" d="M77.2 252.8l-19.3 13.3c-8.1 5.6-4.2 18.2 5.7 18.2h38.6c9.8 0 13.8-12.7 5.7-18.2l-19.3-13.3c-3.5-2.4-8-2.4-11.4 0z"/><path class="st2" d="M74 167.7l-45.5 84.7c-3.7 7 1.3 15.4 9.2 15.4h90.9c7.9 0 12.9-8.4 9.2-15.4l-45.5-84.7c-3.8-7.3-14.4-7.3-18.3 0z"/><path class="st0" d="M79.5 205.8l-18.3 34c-1.5 2.8.5 6.2 3.7 6.2h36.5c3.2 0 5.2-3.4 3.7-6.2l-18.3-34c-1.5-3-5.7-3-7.3 0z"/></svg>