<svg id="Layer_1" xmlns="http://www.w3.org/2000/svg" viewBox="0 0 188.48 310"><style>.st0{fill:#070606}.st1{fill:#37a441}.st2{fill:#fff}.st3{fill:#ff6309}.st4{fill:#fb0925}.st5{fill:#ad347c}.st6{fill:#bfe10e}.st7{fill:#45b1a4}.st8{fill:#2b6a1e}.st9{fill:#ebf613}.st10{fill:#f8355d}.st11{fill:#b51a3c}.st12{fill:#fa9099}.st13{fill:#766b68}.st14{fill:#b9b3ab}.st15{fill:#c3e00d}.st16{fill:#ee141c}.st17{fill:#216e22}.st18{fill:#e80000}.st19{fill:#f7f229}.st20{fill:#963a7a}.st21{fill:#bb3f07}.st22{fill:#802303}.st23{fill:#ed60ae}.st24{fill:#3c7a28}.st25{fill:#4c9836}.st26{fill:#69bc50}.st27{fill:#fe7413}.st28{clip-path:url(#SVGID_2_);fill:#ab4204}.st29{fill:#2c8c3a}.st30{fill:#1b5b22}.st31{fill:#45ac4c}.st32{fill:#2a8635}.st33{fill:#ff7205}.st34{fill:#41a33f}.st35{fill:#44aca5}.st36{fill:#fa7e3e}.st37{fill:#f165a6}.st38{fill:#eeec4b}.st39{fill:#97d3c5}.st40{fill:#fd9a52}.st41{fill:#b14a22}.st42{fill:#99d7d6}.st43{fill:#efd731}.st44{fill:#ae9314}.st45{fill:#fbfd96}.st46{fill:#b56415}.st47{fill:#f07720}.st48{fill:#96471f}.st49{fill:#30a881}.st50{fill:#5f6e7c}.st51{fill:#7b8f9b}.st52{fill:#3d4951}.st53{fill:#dcc69b}.st54{fill:#af9b7b}.st55{fill:#f9eecf}.st56{fill:#dd4e3f}</style><path d="M88.37 253.19l-19.15 13.17c-8.02 5.52-4.12 18.08 5.62 18.08h38.29c9.73 0 13.64-12.56 5.62-18.08L99.6 253.19a9.895 9.895 0 0 0-11.23 0z"/><path class="st53" d="M126.92 262.92h-64.5c-11.22 0-20.32-9.1-20.32-20.32V125.35c0-11.22 9.1-20.32 20.32-20.32h64.5c11.22 0 20.32 9.1 20.32 20.32v117.24c.01 11.23-9.09 20.33-20.32 20.33z"/><path class="st2" d="M84.55 140.18L34.5 233.37c-4.11 7.65 1.43 16.93 10.12 16.93h100.1c8.69 0 14.23-9.27 10.12-16.93l-50.05-93.19c-4.33-8.07-15.9-8.07-20.24 0z"/><path class="st54" d="M41.89 140.28l105.34-16.83v19.26l-105.31 4.74z"/><path class="st55" d="M151.24 117.24l-112.25 5.18-1.1 23.67 113.32-17.29z"/><path class="st54" d="M41.89 235.31l105.34-5.74-1.37 20.64-103.8.17z"/><path class="st54" d="M35.68 229.55s-7.05 8.23 0 16.96 17.97 1.34 17.97 1.34l-17.97-18.3zm116.06-.51s13.44 16.12-5.88 21.16l1.34-22.51 4.54 1.35z"/><path d="M90.61 182.03L70.5 219.47c-1.65 3.07.58 6.8 4.07 6.8h40.21c3.49 0 5.72-3.72 4.07-6.8l-20.11-37.43c-1.74-3.25-6.39-3.25-8.13-.01z"/><path class="st54" d="M41.79 161.8l105.49-2.89-.29 8.97L41.17 181.7z"/><path class="st55" d="M35.58 152.02l118.92-14.61-.68 21.09-116.65 15.63zm.1 77.61l118.08-19.89V229L34.67 245.5s-2.86-1.68-2.44-8.15c.43-6.46 3.45-7.72 3.45-7.72z"/></svg>