<svg width="79" height="22" viewBox="0 0 79 22" xmlns="http://www.w3.org/2000/svg" xmlns:xlink="http://www.w3.org/1999/xlink"><title>silver-bar-04</title><defs><linearGradient x1="50%" y1="0%" x2="50%" y2="100.001%" id="c"><stop stop-color="#989898" offset="0%"/><stop stop-color="#383838" offset="100%"/></linearGradient><rect id="b" width="79" height="14" rx="2"/><filter x="-1.3%" y="-7.1%" width="102.5%" height="128.6%" filterUnits="objectBoundingBox" id="a"><feOffset dy="2" in="SourceAlpha" result="shadowOffsetOuter1"/><feColorMatrix values="0 0 0 0 0 0 0 0 0 0 0 0 0 0 0 0 0 0 0.3 0" in="shadowOffsetOuter1"/></filter><linearGradient x1="50%" y1="0%" x2="50%" y2="100.001%" id="f"><stop stop-color="#E8E8E8" offset="0%"/><stop stop-color="gray" offset="100%"/></linearGradient><path id="e" d="M7.778 10.706L3.11 13l.778-4.588L0 5.352l5.444-.764L7 0l2.333 4.588 5.445.765-3.89 3.059.779 4.588z"/><filter x="-7.1%" y="-7.7%" width="119.8%" height="130.8%" filterUnits="objectBoundingBox" id="d"><feOffset dy="2" in="SourceAlpha" result="shadowOffsetOuter1"/><feColorMatrix values="0 0 0 0 0 0 0 0 0 0 0 0 0 0 0 0 0 0 0.3 0" in="shadowOffsetOuter1"/></filter><path id="h" d="M43.778 10.706L39.11 13l.778-4.588L36 5.352l5.444-.764L43 0l2.333 4.588 5.445.765-3.89 3.059.779 4.588z"/><filter x="-7.1%" y="-7.7%" width="119.8%" height="130.8%" filterUnits="objectBoundingBox" id="g"><feOffset dy="2" in="SourceAlpha" result="shadowOffsetOuter1"/><feColorMatrix values="0 0 0 0 0 0 0 0 0 0 0 0 0 0 0 0 0 0 0.3 0" in="shadowOffsetOuter1"/></filter><path id="j" d="M26 14l-6 3 1-6-5-4 7-1 2-6 3 6 7 1-5 4 1 6z"/><filter x="-5.6%" y="-5.9%" width="116.7%" height="123.5%" filterUnits="objectBoundingBox" id="i"><feOffset dy="2" in="SourceAlpha" result="shadowOffsetOuter1"/><feColorMatrix values="0 0 0 0 0 0 0 0 0 0 0 0 0 0 0 0 0 0 0.3 0" in="shadowOffsetOuter1"/></filter></defs><g fill="none" fill-rule="evenodd"><use fill="#000" filter="url(#a)" xlink:href="#b"/><use fill="url(#c)" xlink:href="#b"/><g transform="translate(15 3)"><use fill="#000" filter="url(#d)" xlink:href="#e"/><use fill="url(#f)" xlink:href="#e"/></g><g transform="translate(15 3)"><use fill="#000" filter="url(#g)" xlink:href="#h"/><use fill="url(#f)" xlink:href="#h"/></g><g transform="translate(15 3)"><use fill="#000" filter="url(#i)" xlink:href="#j"/><use fill="url(#f)" xlink:href="#j"/></g></g></svg>