<svg width="84" height="88" xmlns="http://www.w3.org/2000/svg"><defs><filter x="-7.4%" y="-8.3%" width="114.7%" height="133.3%" filterUnits="objectBoundingBox" id="a"><feOffset dy="5" in="SourceAlpha" result="shadowOffsetOuter1"/><feColorMatrix values="0 0 0 0 0 0 0 0 0 0 0 0 0 0 0 0 0 0 0.296535326 0" in="shadowOffsetOuter1" result="shadowMatrixOuter1"/><feMerge><feMergeNode in="shadowMatrixOuter1"/><feMergeNode in="SourceGraphic"/></feMerge></filter><filter x="-7.4%" y="-8.3%" width="114.7%" height="133.3%" filterUnits="objectBoundingBox" id="b"><feOffset dy="5" in="SourceAlpha" result="shadowOffsetOuter1"/><feColorMatrix values="0 0 0 0 0 0 0 0 0 0 0 0 0 0 0 0 0 0 0.296535326 0" in="shadowOffsetOuter1" result="shadowMatrixOuter1"/><feMerge><feMergeNode in="shadowMatrixOuter1"/><feMergeNode in="SourceGraphic"/></feMerge></filter><filter x="-7.4%" y="-8.3%" width="114.7%" height="133.3%" filterUnits="objectBoundingBox" id="c"><feOffset dy="5" in="SourceAlpha" result="shadowOffsetOuter1"/><feColorMatrix values="0 0 0 0 0 0 0 0 0 0 0 0 0 0 0 0 0 0 0.296535326 0" in="shadowOffsetOuter1" result="shadowMatrixOuter1"/><feMerge><feMergeNode in="shadowMatrixOuter1"/><feMergeNode in="SourceGraphic"/></feMerge></filter><filter x="-7.4%" y="-8.3%" width="114.7%" height="133.3%" filterUnits="objectBoundingBox" id="d"><feOffset dy="5" in="SourceAlpha" result="shadowOffsetOuter1"/><feColorMatrix values="0 0 0 0 0 0 0 0 0 0 0 0 0 0 0 0 0 0 0.296535326 0" in="shadowOffsetOuter1" result="shadowMatrixOuter1"/><feMerge><feMergeNode in="shadowMatrixOuter1"/><feMergeNode in="SourceGraphic"/></feMerge></filter><filter x="-7.4%" y="-8.3%" width="114.7%" height="133.3%" filterUnits="objectBoundingBox" id="e"><feOffset dy="5" in="SourceAlpha" result="shadowOffsetOuter1"/><feColorMatrix values="0 0 0 0 0 0 0 0 0 0 0 0 0 0 0 0 0 0 0.296535326 0" in="shadowOffsetOuter1" result="shadowMatrixOuter1"/><feMerge><feMergeNode in="shadowMatrixOuter1"/><feMergeNode in="SourceGraphic"/></feMerge></filter><filter x="-7.4%" y="-8.3%" width="114.7%" height="133.3%" filterUnits="objectBoundingBox" id="f"><feOffset dy="5" in="SourceAlpha" result="shadowOffsetOuter1"/><feColorMatrix values="0 0 0 0 0 0 0 0 0 0 0 0 0 0 0 0 0 0 0.296535326 0" in="shadowOffsetOuter1" result="shadowMatrixOuter1"/><feMerge><feMergeNode in="shadowMatrixOuter1"/><feMergeNode in="SourceGraphic"/></feMerge></filter><filter x="-7.4%" y="-8.3%" width="114.7%" height="133.3%" filterUnits="objectBoundingBox" id="g"><feOffset dy="5" in="SourceAlpha" result="shadowOffsetOuter1"/><feColorMatrix values="0 0 0 0 0 0 0 0 0 0 0 0 0 0 0 0 0 0 0.296535326 0" in="shadowOffsetOuter1" result="shadowMatrixOuter1"/><feMerge><feMergeNode in="shadowMatrixOuter1"/><feMergeNode in="SourceGraphic"/></feMerge></filter><filter x="-7.4%" y="-8.3%" width="114.7%" height="133.3%" filterUnits="objectBoundingBox" id="h"><feOffset dy="5" in="SourceAlpha" result="shadowOffsetOuter1"/><feColorMatrix values="0 0 0 0 0 0 0 0 0 0 0 0 0 0 0 0 0 0 0.296535326 0" in="shadowOffsetOuter1" result="shadowMatrixOuter1"/><feMerge><feMergeNode in="shadowMatrixOuter1"/><feMergeNode in="SourceGraphic"/></feMerge></filter><filter x="-7.4%" y="-8.3%" width="114.7%" height="133.3%" filterUnits="objectBoundingBox" id="i"><feOffset dy="5" in="SourceAlpha" result="shadowOffsetOuter1"/><feColorMatrix values="0 0 0 0 0 0 0 0 0 0 0 0 0 0 0 0 0 0 0.296535326 0" in="shadowOffsetOuter1" result="shadowMatrixOuter1"/><feMerge><feMergeNode in="shadowMatrixOuter1"/><feMergeNode in="SourceGraphic"/></feMerge></filter></defs><g fill="none" fill-rule="evenodd"><g filter="url(#a)" transform="rotate(-14 233.788 40.459)"><path fill="#5B532E" d="M1.72 14.673l-1.588-1.37.106.747 1.589 1.37z"/><path fill="#AF9B40" d="M16.86 1.819L15.287.556.132 13.303l1.588 1.37z"/><path fill="#4F4F4F" d="M16.86 1.819l.106.747L1.826 15.42l-.106-.747z"/><path fill="gold" d="M3.15 13.392l-1.585-1.365.075-.086 1.585 1.364zm1.372-1.141l-1.585-1.364.074-.086 1.586 1.364zm1.372-1.14L4.309 9.747l.074-.086 1.586 1.364zm1.372-1.14L5.68 8.607l.075-.086L7.34 9.885zm1.502-1.245L7.173 7.372l.075-.086 1.594 1.353zm1.364-1.15L8.537 6.223l.075-.087 1.594 1.354zm1.364-1.149L9.901 5.074l.075-.087L11.57 6.34zm1.364-1.149l-1.595-1.354.075-.086 1.594 1.353zm1.273-1.122l-1.595-1.353.075-.087 1.594 1.353zm1.364-1.149l-1.595-1.354.075-.087L15.57 2.92z"/><path fill="#5B532E" d="M32.41 14.673l1.59-1.37-.107.747-1.588 1.37z"/><path fill="#AF9B40" d="M17.27 1.819L18.844.556l15.155 12.747-1.589 1.37z"/><path fill="#4F4F4F" d="M17.27 1.819l-.106.747 15.14 12.854.106-.747z"/><path fill="gold" d="M30.98 13.392l-.074-.087 1.585-1.364.075.086zm-1.372-1.141l-.074-.086 1.585-1.364.075.086zm-1.371-1.14l-.075-.086 1.585-1.364.075.086zm-1.372-1.14l-.075-.086 1.586-1.364.074.086zm-1.503-1.245l-.074-.087 1.595-1.353.074.086zm-1.364-1.15l-.074-.086 1.595-1.354.074.087zm-1.364-1.149l-.074-.087 1.595-1.353.074.087zM21.27 5.278l-.074-.087 1.595-1.353.074.086zm-1.273-1.122l-.074-.087 1.595-1.353.074.087zm-1.364-1.149l-.074-.087 1.595-1.354.074.087z"/><path fill="#802428" d="M16.99 13.537v15.982L32.754 16.18v-2.643z"/><path fill="#973135" d="M1.216 13.537v2.643l15.762 13.34V13.536z"/><path fill="#AF3C41" d="M16.991 26.876l15.762-13.34L16.99.199 1.229 13.537z"/><path fill="#7A2A2E" d="M16.991 24.41l12.848-10.873L16.99 2.664 4.143 13.537z"/><path d="M4.496 13.537L16.991 24.11l12.495-10.574L16.99 2.963 4.496 13.537zm12.495 11.172L3.79 13.537l13.2-11.172 13.201 11.172L16.99 24.709z" fill="#FB535A"/><path fill="#5B532E" d="M.338 17.078l14.418 12.295-.12-.736L.219 16.342z"/><path fill="#AF9B40" d="M16.345 27.537l-14.4-12.19-1.726.995 14.417 12.295z"/><path fill="#5B532E" d="M14.636 28.637l.12.736 1.709-1.1-.12-.736z"/><path fill="gold" d="M1.403 18.032l-.126-.772 1.686-1.083.061.096-1.622 1.042.113.699zm1.335 1.102l-.126-.772 1.686-1.082.062.095-1.623 1.042.114.7zm1.352 1.208l-.125-.773 1.685-1.082.062.096-1.622 1.042.113.699zm1.336 1.102l-.126-.772 1.686-1.083.062.096-1.623 1.042.114.699zm1.335 1.103l-.125-.773 1.685-1.082.062.096-1.623 1.041.114.7zm1.336 1.102l-.126-.773 1.686-1.082.061.096-1.622 1.042.113.699zm1.352 1.207l-.126-.772L11.01 23l.062.096-1.623 1.042.114.7zm1.335 1.103l-.125-.773 1.685-1.082.062.096-1.623 1.042.114.698zm1.483 1.296l-.126-.772 1.686-1.083.062.096-1.623 1.042.114.699zm1.335 1.103l-.125-.773 1.685-1.082.062.096-1.622 1.041.113.7z"/><path fill="#5B532E" d="M19.48 28.637l-.12.736 14.418-12.295.12-.736z"/><path fill="#AF9B40" d="M17.77 27.537l14.401-12.19 1.727.995L19.48 28.637z"/><path fill="#5B532E" d="M17.651 28.272l1.71 1.1.12-.735-1.71-1.1z"/><path fill="gold" d="M32.714 18.032l-.113-.018.113-.7-1.622-1.04.062-.097 1.685 1.083zm-1.336 1.102l-.113-.018.114-.699-1.623-1.042.062-.095 1.686 1.082zm-1.352 1.208l-.113-.018.114-.7-1.623-1.041.062-.096 1.685 1.082zm-1.336 1.102l-.112-.018.113-.699-1.622-1.042.061-.096 1.686 1.083zm-1.335 1.103l-.113-.019.114-.699-1.623-1.041.062-.096 1.686 1.082zm-1.335 1.102l-.113-.018.114-.7-1.623-1.041.062-.096 1.685 1.082zm-1.353 1.207l-.113-.018.114-.699-1.623-1.042.062-.096 1.686 1.083zm-1.335 1.103l-.113-.019.114-.698L21.71 24.2l.062-.096 1.685 1.082zm-1.482 1.296l-.114-.018.114-.699-1.622-1.042.061-.096 1.686 1.083zm-1.336 1.103l-.113-.019.114-.699-1.623-1.041.062-.096 1.686 1.082z"/><path fill="#FB535A" d="M4.143 13.537l.22.186.474-.405-.216-.185z"/><path fill="#FB535A" d="M4.286 13.416l.218.187 2.794-2.396-.2-.171z"/><path fill="#FB535A" d="M6.764 11.319l.202.173 2.793-2.396-.183-.157z"/><path fill="#FB535A" d="M9.242 9.222l.185.159 2.793-2.396-.166-.143zm4.942-4.183l.152.13 2.79-2.391-.135-.114z"/><path fill="#FB535A" d="M11.721 7.124l.168.144 2.794-2.396-.15-.128zm4.941-4.182l.136.117.327-.282-.134-.113zM4.143 13.537l.263.222.122-.104L6.68 15.5l-.107.092.353.299.456-.391-2.761-2.368z"/><path d="M4.286 13.416l2.763 2.37 2.794-2.396-2.745-2.354-2.812 2.38zm.612-.078l2.092-1.794 2.152 1.846-2.093 1.794-2.151-1.846z" fill="#FB535A"/><path d="M6.764 11.319l2.747 2.356 2.793-2.396-2.728-2.34-2.812 2.38zm.595-.092L9.45 9.433l2.152 1.846-2.092 1.794-2.152-1.846z" fill="#FB535A"/><path d="M9.242 9.222l2.73 2.342 2.793-2.396-2.711-2.326-2.812 2.38zm.578-.106l2.092-1.794 2.152 1.846-2.092 1.794L9.82 9.116zm-3.221 6.499l.353.298.105-.09 2.152 1.846-.09.078.352.299.44-.377-2.854-2.447z" fill="#FB535A"/><path d="M6.725 15.507l2.853 2.447 2.793-2.396-2.853-2.447-2.793 2.396zm.7 0l2.093-1.794 2.152 1.845-2.092 1.795-2.152-1.846z" fill="#FB535A"/><path d="M9.186 13.396l2.853 2.447 2.794-2.396L11.979 11l-2.793 2.396zm.7 0l2.093-1.794 2.152 1.845-2.092 1.795-2.152-1.846z" fill="#FB535A"/><path d="M11.647 11.285l2.853 2.447 2.794-2.396L14.44 8.89l-2.793 2.396zm.701 0L14.44 9.49l2.152 1.845L14.5 13.13l-2.152-1.846zm-3.204 6.484l.353.299.088-.076 2.152 1.846-.074.063.353.3.423-.363-2.854-2.447z" fill="#FB535A"/><path d="M9.253 17.676l2.853 2.447 2.794-2.396-2.854-2.447-2.793 2.396zm.701 0l2.092-1.795 2.152 1.846-2.092 1.794-2.152-1.845z" fill="#FB535A"/><path d="M11.714 15.564l2.853 2.448 2.794-2.396-2.854-2.447-2.793 2.395zm.701 0l2.092-1.794 2.152 1.846-2.092 1.795-2.152-1.847z" fill="#FB535A"/><path d="M14.175 13.453l2.854 2.448 2.793-2.396-2.853-2.447-2.794 2.395zm.701 0l2.093-1.794 2.152 1.846-2.092 1.794-2.153-1.846zm-3.186 6.47l.352.299.071-.061 2.153 1.846-.057.048.353.3.405-.348-2.854-2.448z" fill="#FB535A"/><path d="M11.781 19.844l2.854 2.447 2.793-2.396-2.854-2.447-2.793 2.396zm.701 0l2.092-1.794 2.153 1.845-2.092 1.795-2.153-1.846z" fill="#FB535A"/><path d="M14.242 17.733l2.854 2.447 2.793-2.395-2.853-2.448-2.794 2.396zm.702 0l2.092-1.794 2.152 1.846-2.092 1.794-2.152-1.846z" fill="#FB535A"/><path d="M16.703 15.622l2.854 2.448 2.793-2.397-2.853-2.447-2.794 2.396zm.702 0l2.092-1.794 2.152 1.845-2.092 1.795-2.152-1.846zM14.184 5.039l2.698 2.314 2.793-2.396-1.884-1.616-.8-.677-2.807 2.375zm.545-.134l2.093-1.794 2.152 1.846-2.092 1.794-2.153-1.846z" fill="#FB535A"/><path d="M11.721 7.124l2.714 2.327 2.793-2.395-2.695-2.312-2.812 2.38zm.562-.12l2.092-1.794 2.152 1.846-2.092 1.794-2.152-1.846zm4.379-4.062l2.68 2.3.346-.296-2.697-2.282z" fill="#FB535A"/><path d="M16.556 7.074L19.41 9.52l2.793-2.396-2.853-2.447-2.794 2.396zm.702 0l2.092-1.795 2.152 1.846L19.41 8.92l-2.152-1.846z" fill="#FB535A"/><path d="M14.11 9.172l2.853 2.448 2.794-2.396-2.854-2.447-2.793 2.395zm.7 0l2.093-1.794 2.152 1.846-2.092 1.795-2.152-1.847zm4.208-4.209L21.87 7.41l.362-.31-.353-.299-.009.008-1.325-1.137L19.36 4.67z" fill="#FB535A"/><path d="M19.085 9.242l2.853 2.448 2.794-2.396-2.854-2.447-2.793 2.395zm.701 0l2.092-1.794 2.152 1.846-2.092 1.794-2.152-1.846z" fill="#FB535A"/><path d="M16.638 11.341l2.853 2.448 2.794-2.396-2.854-2.448-2.793 2.396zm.701 0l2.092-1.794 2.152 1.846-2.092 1.794-2.152-1.846zm4.207-4.21L24.4 9.58l.378-.325-.353-.299-.025.022-2.153-1.846.012-.01-.353-.298z" fill="#FB535A"/><path d="M21.613 11.41l2.854 2.448 2.793-2.396-2.854-2.447-2.793 2.396zm.702 0l2.091-1.793 2.153 1.845-2.092 1.795-2.152-1.846z" fill="#FB535A"/><path d="M19.166 13.51l2.854 2.447 2.793-2.396-2.853-2.447-2.794 2.396zm.702 0l2.092-1.795 2.152 1.846-2.092 1.795-2.152-1.846zm4.206-4.21l2.854 2.447.395-.339-.352-.299-.043.037L24.776 9.3l.028-.024-.353-.299zm-9.823 12.792l.353.298.054-.046 2.153 1.846-.04.034.22.186.392-.331-2.725-2.337z" fill="#FB535A"/><path d="M14.326 22.027l2.722 2.335 2.812-2.38-2.74-2.35-2.794 2.395zm.702 0l2.092-1.794 2.152 1.846-2.092 1.794-2.152-1.846z" fill="#FB535A"/><path d="M16.788 19.916l2.738 2.349 2.812-2.38-2.757-2.365-2.793 2.396zm.7 0l2.093-1.794 2.152 1.846-2.092 1.794-2.152-1.846z" fill="#FB535A"/><path d="M19.249 17.805l2.754 2.363 2.813-2.38-2.774-2.379-2.793 2.396zm.701 0l2.092-1.794 2.152 1.846-2.092 1.794-2.152-1.846zm-3.153 6.441l.194.164.392-.331-.196-.168z" fill="#FB535A"/><path fill="#FB535A" d="M16.855 24.196l.193.166 2.812-2.38-.212-.182z"/><path fill="#FB535A" d="M19.316 22.085l.21.18 2.812-2.38-.229-.196z"/><path fill="#FB535A" d="M21.777 19.974l.227.194 2.811-2.38-.245-.21zm2.381-6.38l2.788 2.391 2.812-2.38-2.806-2.407-2.794 2.396zm.702 0l2.092-1.794 2.152 1.845-2.092 1.795-2.152-1.846z"/><path d="M21.712 15.693l2.77 2.377 2.813-2.38-2.79-2.393-2.793 2.396zm.701 0l2.092-1.794 2.152 1.845-2.092 1.795-2.152-1.846zm4.207-4.21l2.804 2.405.415-.351-.306-.26-.06.052-2.152-1.846.045-.039-.353-.298z" fill="#FB535A"/><path fill="#FB535A" d="M26.687 15.763l.26.222 2.811-2.38-.278-.238z"/><path fill="#FB535A" d="M24.24 17.861l.243.209 2.812-2.38-.262-.224zm4.908-4.209l.276.236.415-.351-.28-.238z"/><path fill="#7A2A2E" d="M16.972 7.476l-7.229 6.118 7.229 6.117 7.228-6.117z"/><path d="M10.538 13.594l6.434 5.444 6.433-5.444-6.433-5.445-6.434 5.445zm6.434 6.79l-8.024-6.79 8.024-6.79 8.023 6.79-8.023 6.79z" fill="#FFF"/><path d="M12.854 13.594l4.118 3.484 4.117-3.484-4.117-3.485-4.118 3.485zm4.118 3.783L12.5 13.594l4.47-3.784 4.471 3.784-4.47 3.783z" fill="#FFF"/><path fill="#FFF" d="M17.006 12.667l-2.718 2.3 2.718 2.3 2.717-2.3z"/></g><g filter="url(#b)" transform="rotate(16 -131.834 215.717)"><path fill="#5B532E" d="M1.72 14.673l-1.588-1.37.106.747 1.589 1.37z"/><path fill="#AF9B40" d="M16.86 1.819L15.287.556.132 13.303l1.588 1.37z"/><path fill="#4F4F4F" d="M16.86 1.819l.106.747L1.826 15.42l-.106-.747z"/><path fill="gold" d="M3.15 13.392l-1.585-1.365.075-.086 1.585 1.364zm1.372-1.141l-1.585-1.364.074-.086 1.586 1.364zm1.372-1.14L4.309 9.747l.074-.086 1.586 1.364zm1.372-1.14L5.68 8.607l.075-.086L7.34 9.885zm1.502-1.245L7.173 7.372l.075-.086 1.594 1.353zm1.364-1.15L8.537 6.223l.075-.087 1.594 1.354zm1.364-1.149L9.901 5.074l.075-.087L11.57 6.34zm1.364-1.149l-1.595-1.354.075-.086 1.594 1.353zm1.273-1.122l-1.595-1.353.075-.087 1.594 1.353zm1.364-1.149l-1.595-1.354.075-.087L15.57 2.92z"/><path fill="#5B532E" d="M32.41 14.673l1.59-1.37-.107.747-1.588 1.37z"/><path fill="#AF9B40" d="M17.27 1.819L18.844.556l15.155 12.747-1.589 1.37z"/><path fill="#4F4F4F" d="M17.27 1.819l-.106.747 15.14 12.854.106-.747z"/><path fill="gold" d="M30.98 13.392l-.074-.087 1.585-1.364.075.086zm-1.372-1.141l-.074-.086 1.585-1.364.075.086zm-1.371-1.14l-.075-.086 1.585-1.364.075.086zm-1.372-1.14l-.075-.086 1.586-1.364.074.086zm-1.503-1.245l-.074-.087 1.595-1.353.074.086zm-1.364-1.15l-.074-.086 1.595-1.354.074.087zm-1.364-1.149l-.074-.087 1.595-1.353.074.087zM21.27 5.278l-.074-.087 1.595-1.353.074.086zm-1.273-1.122l-.074-.087 1.595-1.353.074.087zm-1.364-1.149l-.074-.087 1.595-1.354.074.087z"/><path fill="#802428" d="M16.99 13.537v15.982L32.754 16.18v-2.643z"/><path fill="#973135" d="M1.216 13.537v2.643l15.762 13.34V13.536z"/><path fill="#AF3C41" d="M16.991 26.876l15.762-13.34L16.99.199 1.229 13.537z"/><path fill="#7A2A2E" d="M16.991 24.41l12.848-10.873L16.99 2.664 4.143 13.537z"/><path d="M4.496 13.537L16.991 24.11l12.495-10.574L16.99 2.963 4.496 13.537zm12.495 11.172L3.79 13.537l13.2-11.172 13.201 11.172L16.99 24.709z" fill="#FB535A"/><path fill="#5B532E" d="M.338 17.078l14.418 12.295-.12-.736L.219 16.342z"/><path fill="#AF9B40" d="M16.345 27.537l-14.4-12.19-1.726.995 14.417 12.295z"/><path fill="#5B532E" d="M14.636 28.637l.12.736 1.709-1.1-.12-.736z"/><path fill="gold" d="M1.403 18.032l-.126-.772 1.686-1.083.061.096-1.622 1.042.113.699zm1.335 1.102l-.126-.772 1.686-1.082.062.095-1.623 1.042.114.7zm1.352 1.208l-.125-.773 1.685-1.082.062.096-1.622 1.042.113.699zm1.336 1.102l-.126-.772 1.686-1.083.062.096-1.623 1.042.114.699zm1.335 1.103l-.125-.773 1.685-1.082.062.096-1.623 1.041.114.7zm1.336 1.102l-.126-.773 1.686-1.082.061.096-1.622 1.042.113.699zm1.352 1.207l-.126-.772L11.01 23l.062.096-1.623 1.042.114.7zm1.335 1.103l-.125-.773 1.685-1.082.062.096-1.623 1.042.114.698zm1.483 1.296l-.126-.772 1.686-1.083.062.096-1.623 1.042.114.699zm1.335 1.103l-.125-.773 1.685-1.082.062.096-1.622 1.041.113.7z"/><path fill="#5B532E" d="M19.48 28.637l-.12.736 14.418-12.295.12-.736z"/><path fill="#AF9B40" d="M17.77 27.537l14.401-12.19 1.727.995L19.48 28.637z"/><path fill="#5B532E" d="M17.651 28.272l1.71 1.1.12-.735-1.71-1.1z"/><path fill="gold" d="M32.714 18.032l-.113-.018.113-.7-1.622-1.04.062-.097 1.685 1.083zm-1.336 1.102l-.113-.018.114-.699-1.623-1.042.062-.095 1.686 1.082zm-1.352 1.208l-.113-.018.114-.7-1.623-1.041.062-.096 1.685 1.082zm-1.336 1.102l-.112-.018.113-.699-1.622-1.042.061-.096 1.686 1.083zm-1.335 1.103l-.113-.019.114-.699-1.623-1.041.062-.096 1.686 1.082zm-1.335 1.102l-.113-.018.114-.7-1.623-1.041.062-.096 1.685 1.082zm-1.353 1.207l-.113-.018.114-.699-1.623-1.042.062-.096 1.686 1.083zm-1.335 1.103l-.113-.019.114-.698L21.71 24.2l.062-.096 1.685 1.082zm-1.482 1.296l-.114-.018.114-.699-1.622-1.042.061-.096 1.686 1.083zm-1.336 1.103l-.113-.019.114-.699-1.623-1.041.062-.096 1.686 1.082z"/><path fill="#FB535A" d="M4.143 13.537l.22.186.474-.405-.216-.185z"/><path fill="#FB535A" d="M4.286 13.416l.218.187 2.794-2.396-.2-.171z"/><path fill="#FB535A" d="M6.764 11.319l.202.173 2.793-2.396-.183-.157z"/><path fill="#FB535A" d="M9.242 9.222l.185.159 2.793-2.396-.166-.143zm4.942-4.183l.152.13 2.79-2.391-.135-.114z"/><path fill="#FB535A" d="M11.721 7.124l.168.144 2.794-2.396-.15-.128zm4.941-4.182l.136.117.327-.282-.134-.113zM4.143 13.537l.263.222.122-.104L6.68 15.5l-.107.092.353.299.456-.391-2.761-2.368z"/><path d="M4.286 13.416l2.763 2.37 2.794-2.396-2.745-2.354-2.812 2.38zm.612-.078l2.092-1.794 2.152 1.846-2.093 1.794-2.151-1.846z" fill="#FB535A"/><path d="M6.764 11.319l2.747 2.356 2.793-2.396-2.728-2.34-2.812 2.38zm.595-.092L9.45 9.433l2.152 1.846-2.092 1.794-2.152-1.846z" fill="#FB535A"/><path d="M9.242 9.222l2.73 2.342 2.793-2.396-2.711-2.326-2.812 2.38zm.578-.106l2.092-1.794 2.152 1.846-2.092 1.794L9.82 9.116zm-3.221 6.499l.353.298.105-.09 2.152 1.846-.09.078.352.299.44-.377-2.854-2.447z" fill="#FB535A"/><path d="M6.725 15.507l2.853 2.447 2.793-2.396-2.853-2.447-2.793 2.396zm.7 0l2.093-1.794 2.152 1.845-2.092 1.795-2.152-1.846z" fill="#FB535A"/><path d="M9.186 13.396l2.853 2.447 2.794-2.396L11.979 11l-2.793 2.396zm.7 0l2.093-1.794 2.152 1.845-2.092 1.795-2.152-1.846z" fill="#FB535A"/><path d="M11.647 11.285l2.853 2.447 2.794-2.396L14.44 8.89l-2.793 2.396zm.701 0L14.44 9.49l2.152 1.845L14.5 13.13l-2.152-1.846zm-3.204 6.484l.353.299.088-.076 2.152 1.846-.074.063.353.3.423-.363-2.854-2.447z" fill="#FB535A"/><path d="M9.253 17.676l2.853 2.447 2.794-2.396-2.854-2.447-2.793 2.396zm.701 0l2.092-1.795 2.152 1.846-2.092 1.794-2.152-1.845z" fill="#FB535A"/><path d="M11.714 15.564l2.853 2.448 2.794-2.396-2.854-2.447-2.793 2.395zm.701 0l2.092-1.794 2.152 1.846-2.092 1.795-2.152-1.847z" fill="#FB535A"/><path d="M14.175 13.453l2.854 2.448 2.793-2.396-2.853-2.447-2.794 2.395zm.701 0l2.093-1.794 2.152 1.846-2.092 1.794-2.153-1.846zm-3.186 6.47l.352.299.071-.061 2.153 1.846-.057.048.353.3.405-.348-2.854-2.448z" fill="#FB535A"/><path d="M11.781 19.844l2.854 2.447 2.793-2.396-2.854-2.447-2.793 2.396zm.701 0l2.092-1.794 2.153 1.845-2.092 1.795-2.153-1.846z" fill="#FB535A"/><path d="M14.242 17.733l2.854 2.447 2.793-2.395-2.853-2.448-2.794 2.396zm.702 0l2.092-1.794 2.152 1.846-2.092 1.794-2.152-1.846z" fill="#FB535A"/><path d="M16.703 15.622l2.854 2.448 2.793-2.397-2.853-2.447-2.794 2.396zm.702 0l2.092-1.794 2.152 1.845-2.092 1.795-2.152-1.846zM14.184 5.039l2.698 2.314 2.793-2.396-1.884-1.616-.8-.677-2.807 2.375zm.545-.134l2.093-1.794 2.152 1.846-2.092 1.794-2.153-1.846z" fill="#FB535A"/><path d="M11.721 7.124l2.714 2.327 2.793-2.395-2.695-2.312-2.812 2.38zm.562-.12l2.092-1.794 2.152 1.846-2.092 1.794-2.152-1.846zm4.379-4.062l2.68 2.3.346-.296-2.697-2.282z" fill="#FB535A"/><path d="M16.556 7.074L19.41 9.52l2.793-2.396-2.853-2.447-2.794 2.396zm.702 0l2.092-1.795 2.152 1.846L19.41 8.92l-2.152-1.846z" fill="#FB535A"/><path d="M14.11 9.172l2.853 2.448 2.794-2.396-2.854-2.447-2.793 2.395zm.7 0l2.093-1.794 2.152 1.846-2.092 1.795-2.152-1.847zm4.208-4.209L21.87 7.41l.362-.31-.353-.299-.009.008-1.325-1.137L19.36 4.67z" fill="#FB535A"/><path d="M19.085 9.242l2.853 2.448 2.794-2.396-2.854-2.447-2.793 2.395zm.701 0l2.092-1.794 2.152 1.846-2.092 1.794-2.152-1.846z" fill="#FB535A"/><path d="M16.638 11.341l2.853 2.448 2.794-2.396-2.854-2.448-2.793 2.396zm.701 0l2.092-1.794 2.152 1.846-2.092 1.794-2.152-1.846zm4.207-4.21L24.4 9.58l.378-.325-.353-.299-.025.022-2.153-1.846.012-.01-.353-.298z" fill="#FB535A"/><path d="M21.613 11.41l2.854 2.448 2.793-2.396-2.854-2.447-2.793 2.396zm.702 0l2.091-1.793 2.153 1.845-2.092 1.795-2.152-1.846z" fill="#FB535A"/><path d="M19.166 13.51l2.854 2.447 2.793-2.396-2.853-2.447-2.794 2.396zm.702 0l2.092-1.795 2.152 1.846-2.092 1.795-2.152-1.846zm4.206-4.21l2.854 2.447.395-.339-.352-.299-.043.037L24.776 9.3l.028-.024-.353-.299zm-9.823 12.792l.353.298.054-.046 2.153 1.846-.04.034.22.186.392-.331-2.725-2.337z" fill="#FB535A"/><path d="M14.326 22.027l2.722 2.335 2.812-2.38-2.74-2.35-2.794 2.395zm.702 0l2.092-1.794 2.152 1.846-2.092 1.794-2.152-1.846z" fill="#FB535A"/><path d="M16.788 19.916l2.738 2.349 2.812-2.38-2.757-2.365-2.793 2.396zm.7 0l2.093-1.794 2.152 1.846-2.092 1.794-2.152-1.846z" fill="#FB535A"/><path d="M19.249 17.805l2.754 2.363 2.813-2.38-2.774-2.379-2.793 2.396zm.701 0l2.092-1.794 2.152 1.846-2.092 1.794-2.152-1.846zm-3.153 6.441l.194.164.392-.331-.196-.168z" fill="#FB535A"/><path fill="#FB535A" d="M16.855 24.196l.193.166 2.812-2.38-.212-.182z"/><path fill="#FB535A" d="M19.316 22.085l.21.18 2.812-2.38-.229-.196z"/><path fill="#FB535A" d="M21.777 19.974l.227.194 2.811-2.38-.245-.21zm2.381-6.38l2.788 2.391 2.812-2.38-2.806-2.407-2.794 2.396zm.702 0l2.092-1.794 2.152 1.845-2.092 1.795-2.152-1.846z"/><path d="M21.712 15.693l2.77 2.377 2.813-2.38-2.79-2.393-2.793 2.396zm.701 0l2.092-1.794 2.152 1.845-2.092 1.795-2.152-1.846zm4.207-4.21l2.804 2.405.415-.351-.306-.26-.06.052-2.152-1.846.045-.039-.353-.298z" fill="#FB535A"/><path fill="#FB535A" d="M26.687 15.763l.26.222 2.811-2.38-.278-.238z"/><path fill="#FB535A" d="M24.24 17.861l.243.209 2.812-2.38-.262-.224zm4.908-4.209l.276.236.415-.351-.28-.238z"/><path fill="#7A2A2E" d="M16.972 7.476l-7.229 6.118 7.229 6.117 7.228-6.117z"/><path d="M10.538 13.594l6.434 5.444 6.433-5.444-6.433-5.445-6.434 5.445zm6.434 6.79l-8.024-6.79 8.024-6.79 8.023 6.79-8.023 6.79z" fill="#FFF"/><path d="M12.854 13.594l4.118 3.484 4.117-3.484-4.117-3.485-4.118 3.485zm4.118 3.783L12.5 13.594l4.47-3.784 4.471 3.784-4.47 3.783z" fill="#FFF"/><path fill="#FFF" d="M17.006 12.667l-2.718 2.3 2.718 2.3 2.717-2.3z"/></g><g filter="url(#c)" transform="rotate(-34 114.483 -7.075)"><path fill="#5B532E" d="M1.72 14.673l-1.588-1.37.106.747 1.589 1.37z"/><path fill="#AF9B40" d="M16.86 1.819L15.287.556.132 13.303l1.588 1.37z"/><path fill="#4F4F4F" d="M16.86 1.819l.106.747L1.826 15.42l-.106-.747z"/><path fill="gold" d="M3.15 13.392l-1.585-1.365.075-.086 1.585 1.364zm1.372-1.141l-1.585-1.364.074-.086 1.586 1.364zm1.372-1.14L4.309 9.747l.074-.086 1.586 1.364zm1.372-1.14L5.68 8.607l.075-.086L7.34 9.885zm1.502-1.245L7.173 7.372l.075-.086 1.594 1.353zm1.364-1.15L8.537 6.223l.075-.087 1.594 1.354zm1.364-1.149L9.901 5.074l.075-.087L11.57 6.34zm1.364-1.149l-1.595-1.354.075-.086 1.594 1.353zm1.273-1.122l-1.595-1.353.075-.087 1.594 1.353zm1.364-1.149l-1.595-1.354.075-.087L15.57 2.92z"/><path fill="#5B532E" d="M32.41 14.673l1.59-1.37-.107.747-1.588 1.37z"/><path fill="#AF9B40" d="M17.27 1.819L18.844.556l15.155 12.747-1.589 1.37z"/><path fill="#4F4F4F" d="M17.27 1.819l-.106.747 15.14 12.854.106-.747z"/><path fill="gold" d="M30.98 13.392l-.074-.087 1.585-1.364.075.086zm-1.372-1.141l-.074-.086 1.585-1.364.075.086zm-1.371-1.14l-.075-.086 1.585-1.364.075.086zm-1.372-1.14l-.075-.086 1.586-1.364.074.086zm-1.503-1.245l-.074-.087 1.595-1.353.074.086zm-1.364-1.15l-.074-.086 1.595-1.354.074.087zm-1.364-1.149l-.074-.087 1.595-1.353.074.087zM21.27 5.278l-.074-.087 1.595-1.353.074.086zm-1.273-1.122l-.074-.087 1.595-1.353.074.087zm-1.364-1.149l-.074-.087 1.595-1.354.074.087z"/><path fill="#802428" d="M16.99 13.537v15.982L32.754 16.18v-2.643z"/><path fill="#973135" d="M1.216 13.537v2.643l15.762 13.34V13.536z"/><path fill="#AF3C41" d="M16.991 26.876l15.762-13.34L16.99.199 1.229 13.537z"/><path fill="#7A2A2E" d="M16.991 24.41l12.848-10.873L16.99 2.664 4.143 13.537z"/><path d="M4.496 13.537L16.991 24.11l12.495-10.574L16.99 2.963 4.496 13.537zm12.495 11.172L3.79 13.537l13.2-11.172 13.201 11.172L16.99 24.709z" fill="#FB535A"/><path fill="#5B532E" d="M.338 17.078l14.418 12.295-.12-.736L.219 16.342z"/><path fill="#AF9B40" d="M16.345 27.537l-14.4-12.19-1.726.995 14.417 12.295z"/><path fill="#5B532E" d="M14.636 28.637l.12.736 1.709-1.1-.12-.736z"/><path fill="gold" d="M1.403 18.032l-.126-.772 1.686-1.083.061.096-1.622 1.042.113.699zm1.335 1.102l-.126-.772 1.686-1.082.062.095-1.623 1.042.114.7zm1.352 1.208l-.125-.773 1.685-1.082.062.096-1.622 1.042.113.699zm1.336 1.102l-.126-.772 1.686-1.083.062.096-1.623 1.042.114.699zm1.335 1.103l-.125-.773 1.685-1.082.062.096-1.623 1.041.114.7zm1.336 1.102l-.126-.773 1.686-1.082.061.096-1.622 1.042.113.699zm1.352 1.207l-.126-.772L11.01 23l.062.096-1.623 1.042.114.7zm1.335 1.103l-.125-.773 1.685-1.082.062.096-1.623 1.042.114.698zm1.483 1.296l-.126-.772 1.686-1.083.062.096-1.623 1.042.114.699zm1.335 1.103l-.125-.773 1.685-1.082.062.096-1.622 1.041.113.7z"/><path fill="#5B532E" d="M19.48 28.637l-.12.736 14.418-12.295.12-.736z"/><path fill="#AF9B40" d="M17.77 27.537l14.401-12.19 1.727.995L19.48 28.637z"/><path fill="#5B532E" d="M17.651 28.272l1.71 1.1.12-.735-1.71-1.1z"/><path fill="gold" d="M32.714 18.032l-.113-.018.113-.7-1.622-1.04.062-.097 1.685 1.083zm-1.336 1.102l-.113-.018.114-.699-1.623-1.042.062-.095 1.686 1.082zm-1.352 1.208l-.113-.018.114-.7-1.623-1.041.062-.096 1.685 1.082zm-1.336 1.102l-.112-.018.113-.699-1.622-1.042.061-.096 1.686 1.083zm-1.335 1.103l-.113-.019.114-.699-1.623-1.041.062-.096 1.686 1.082zm-1.335 1.102l-.113-.018.114-.7-1.623-1.041.062-.096 1.685 1.082zm-1.353 1.207l-.113-.018.114-.699-1.623-1.042.062-.096 1.686 1.083zm-1.335 1.103l-.113-.019.114-.698L21.71 24.2l.062-.096 1.685 1.082zm-1.482 1.296l-.114-.018.114-.699-1.622-1.042.061-.096 1.686 1.083zm-1.336 1.103l-.113-.019.114-.699-1.623-1.041.062-.096 1.686 1.082z"/><path fill="#FB535A" d="M4.143 13.537l.22.186.474-.405-.216-.185z"/><path fill="#FB535A" d="M4.286 13.416l.218.187 2.794-2.396-.2-.171z"/><path fill="#FB535A" d="M6.764 11.319l.202.173 2.793-2.396-.183-.157z"/><path fill="#FB535A" d="M9.242 9.222l.185.159 2.793-2.396-.166-.143zm4.942-4.183l.152.13 2.79-2.391-.135-.114z"/><path fill="#FB535A" d="M11.721 7.124l.168.144 2.794-2.396-.15-.128zm4.941-4.182l.136.117.327-.282-.134-.113zM4.143 13.537l.263.222.122-.104L6.68 15.5l-.107.092.353.299.456-.391-2.761-2.368z"/><path d="M4.286 13.416l2.763 2.37 2.794-2.396-2.745-2.354-2.812 2.38zm.612-.078l2.092-1.794 2.152 1.846-2.093 1.794-2.151-1.846z" fill="#FB535A"/><path d="M6.764 11.319l2.747 2.356 2.793-2.396-2.728-2.34-2.812 2.38zm.595-.092L9.45 9.433l2.152 1.846-2.092 1.794-2.152-1.846z" fill="#FB535A"/><path d="M9.242 9.222l2.73 2.342 2.793-2.396-2.711-2.326-2.812 2.38zm.578-.106l2.092-1.794 2.152 1.846-2.092 1.794L9.82 9.116zm-3.221 6.499l.353.298.105-.09 2.152 1.846-.09.078.352.299.44-.377-2.854-2.447z" fill="#FB535A"/><path d="M6.725 15.507l2.853 2.447 2.793-2.396-2.853-2.447-2.793 2.396zm.7 0l2.093-1.794 2.152 1.845-2.092 1.795-2.152-1.846z" fill="#FB535A"/><path d="M9.186 13.396l2.853 2.447 2.794-2.396L11.979 11l-2.793 2.396zm.7 0l2.093-1.794 2.152 1.845-2.092 1.795-2.152-1.846z" fill="#FB535A"/><path d="M11.647 11.285l2.853 2.447 2.794-2.396L14.44 8.89l-2.793 2.396zm.701 0L14.44 9.49l2.152 1.845L14.5 13.13l-2.152-1.846zm-3.204 6.484l.353.299.088-.076 2.152 1.846-.074.063.353.3.423-.363-2.854-2.447z" fill="#FB535A"/><path d="M9.253 17.676l2.853 2.447 2.794-2.396-2.854-2.447-2.793 2.396zm.701 0l2.092-1.795 2.152 1.846-2.092 1.794-2.152-1.845z" fill="#FB535A"/><path d="M11.714 15.564l2.853 2.448 2.794-2.396-2.854-2.447-2.793 2.395zm.701 0l2.092-1.794 2.152 1.846-2.092 1.795-2.152-1.847z" fill="#FB535A"/><path d="M14.175 13.453l2.854 2.448 2.793-2.396-2.853-2.447-2.794 2.395zm.701 0l2.093-1.794 2.152 1.846-2.092 1.794-2.153-1.846zm-3.186 6.47l.352.299.071-.061 2.153 1.846-.057.048.353.3.405-.348-2.854-2.448z" fill="#FB535A"/><path d="M11.781 19.844l2.854 2.447 2.793-2.396-2.854-2.447-2.793 2.396zm.701 0l2.092-1.794 2.153 1.845-2.092 1.795-2.153-1.846z" fill="#FB535A"/><path d="M14.242 17.733l2.854 2.447 2.793-2.395-2.853-2.448-2.794 2.396zm.702 0l2.092-1.794 2.152 1.846-2.092 1.794-2.152-1.846z" fill="#FB535A"/><path d="M16.703 15.622l2.854 2.448 2.793-2.397-2.853-2.447-2.794 2.396zm.702 0l2.092-1.794 2.152 1.845-2.092 1.795-2.152-1.846zM14.184 5.039l2.698 2.314 2.793-2.396-1.884-1.616-.8-.677-2.807 2.375zm.545-.134l2.093-1.794 2.152 1.846-2.092 1.794-2.153-1.846z" fill="#FB535A"/><path d="M11.721 7.124l2.714 2.327 2.793-2.395-2.695-2.312-2.812 2.38zm.562-.12l2.092-1.794 2.152 1.846-2.092 1.794-2.152-1.846zm4.379-4.062l2.68 2.3.346-.296-2.697-2.282z" fill="#FB535A"/><path d="M16.556 7.074L19.41 9.52l2.793-2.396-2.853-2.447-2.794 2.396zm.702 0l2.092-1.795 2.152 1.846L19.41 8.92l-2.152-1.846z" fill="#FB535A"/><path d="M14.11 9.172l2.853 2.448 2.794-2.396-2.854-2.447-2.793 2.395zm.7 0l2.093-1.794 2.152 1.846-2.092 1.795-2.152-1.847zm4.208-4.209L21.87 7.41l.362-.31-.353-.299-.009.008-1.325-1.137L19.36 4.67z" fill="#FB535A"/><path d="M19.085 9.242l2.853 2.448 2.794-2.396-2.854-2.447-2.793 2.395zm.701 0l2.092-1.794 2.152 1.846-2.092 1.794-2.152-1.846z" fill="#FB535A"/><path d="M16.638 11.341l2.853 2.448 2.794-2.396-2.854-2.448-2.793 2.396zm.701 0l2.092-1.794 2.152 1.846-2.092 1.794-2.152-1.846zm4.207-4.21L24.4 9.58l.378-.325-.353-.299-.025.022-2.153-1.846.012-.01-.353-.298z" fill="#FB535A"/><path d="M21.613 11.41l2.854 2.448 2.793-2.396-2.854-2.447-2.793 2.396zm.702 0l2.091-1.793 2.153 1.845-2.092 1.795-2.152-1.846z" fill="#FB535A"/><path d="M19.166 13.51l2.854 2.447 2.793-2.396-2.853-2.447-2.794 2.396zm.702 0l2.092-1.795 2.152 1.846-2.092 1.795-2.152-1.846zm4.206-4.21l2.854 2.447.395-.339-.352-.299-.043.037L24.776 9.3l.028-.024-.353-.299zm-9.823 12.792l.353.298.054-.046 2.153 1.846-.04.034.22.186.392-.331-2.725-2.337z" fill="#FB535A"/><path d="M14.326 22.027l2.722 2.335 2.812-2.38-2.74-2.35-2.794 2.395zm.702 0l2.092-1.794 2.152 1.846-2.092 1.794-2.152-1.846z" fill="#FB535A"/><path d="M16.788 19.916l2.738 2.349 2.812-2.38-2.757-2.365-2.793 2.396zm.7 0l2.093-1.794 2.152 1.846-2.092 1.794-2.152-1.846z" fill="#FB535A"/><path d="M19.249 17.805l2.754 2.363 2.813-2.38-2.774-2.379-2.793 2.396zm.701 0l2.092-1.794 2.152 1.846-2.092 1.794-2.152-1.846zm-3.153 6.441l.194.164.392-.331-.196-.168z" fill="#FB535A"/><path fill="#FB535A" d="M16.855 24.196l.193.166 2.812-2.38-.212-.182z"/><path fill="#FB535A" d="M19.316 22.085l.21.18 2.812-2.38-.229-.196z"/><path fill="#FB535A" d="M21.777 19.974l.227.194 2.811-2.38-.245-.21zm2.381-6.38l2.788 2.391 2.812-2.38-2.806-2.407-2.794 2.396zm.702 0l2.092-1.794 2.152 1.845-2.092 1.795-2.152-1.846z"/><path d="M21.712 15.693l2.77 2.377 2.813-2.38-2.79-2.393-2.793 2.396zm.701 0l2.092-1.794 2.152 1.845-2.092 1.795-2.152-1.846zm4.207-4.21l2.804 2.405.415-.351-.306-.26-.06.052-2.152-1.846.045-.039-.353-.298z" fill="#FB535A"/><path fill="#FB535A" d="M26.687 15.763l.26.222 2.811-2.38-.278-.238z"/><path fill="#FB535A" d="M24.24 17.861l.243.209 2.812-2.38-.262-.224zm4.908-4.209l.276.236.415-.351-.28-.238z"/><path fill="#7A2A2E" d="M16.972 7.476l-7.229 6.118 7.229 6.117 7.228-6.117z"/><path d="M10.538 13.594l6.434 5.444 6.433-5.444-6.433-5.445-6.434 5.445zm6.434 6.79l-8.024-6.79 8.024-6.79 8.023 6.79-8.023 6.79z" fill="#FFF"/><path d="M12.854 13.594l4.118 3.484 4.117-3.484-4.117-3.485-4.118 3.485zm4.118 3.783L12.5 13.594l4.47-3.784 4.471 3.784-4.47 3.783z" fill="#FFF"/><path fill="#FFF" d="M17.006 12.667l-2.718 2.3 2.718 2.3 2.717-2.3z"/></g><g filter="url(#d)" transform="rotate(26 -27.407 114.952)"><path fill="#5B532E" d="M1.72 14.673l-1.588-1.37.106.747 1.589 1.37z"/><path fill="#AF9B40" d="M16.86 1.819L15.287.556.132 13.303l1.588 1.37z"/><path fill="#4F4F4F" d="M16.86 1.819l.106.747L1.826 15.42l-.106-.747z"/><path fill="gold" d="M3.15 13.392l-1.585-1.365.075-.086 1.585 1.364zm1.372-1.141l-1.585-1.364.074-.086 1.586 1.364zm1.372-1.14L4.309 9.747l.074-.086 1.586 1.364zm1.372-1.14L5.68 8.607l.075-.086L7.34 9.885zm1.502-1.245L7.173 7.372l.075-.086 1.594 1.353zm1.364-1.15L8.537 6.223l.075-.087 1.594 1.354zm1.364-1.149L9.901 5.074l.075-.087L11.57 6.34zm1.364-1.149l-1.595-1.354.075-.086 1.594 1.353zm1.273-1.122l-1.595-1.353.075-.087 1.594 1.353zm1.364-1.149l-1.595-1.354.075-.087L15.57 2.92z"/><path fill="#5B532E" d="M32.41 14.673l1.59-1.37-.107.747-1.588 1.37z"/><path fill="#AF9B40" d="M17.27 1.819L18.844.556l15.155 12.747-1.589 1.37z"/><path fill="#4F4F4F" d="M17.27 1.819l-.106.747 15.14 12.854.106-.747z"/><path fill="gold" d="M30.98 13.392l-.074-.087 1.585-1.364.075.086zm-1.372-1.141l-.074-.086 1.585-1.364.075.086zm-1.371-1.14l-.075-.086 1.585-1.364.075.086zm-1.372-1.14l-.075-.086 1.586-1.364.074.086zm-1.503-1.245l-.074-.087 1.595-1.353.074.086zm-1.364-1.15l-.074-.086 1.595-1.354.074.087zm-1.364-1.149l-.074-.087 1.595-1.353.074.087zM21.27 5.278l-.074-.087 1.595-1.353.074.086zm-1.273-1.122l-.074-.087 1.595-1.353.074.087zm-1.364-1.149l-.074-.087 1.595-1.354.074.087z"/><path fill="#802428" d="M16.99 13.537v15.982L32.754 16.18v-2.643z"/><path fill="#973135" d="M1.216 13.537v2.643l15.762 13.34V13.536z"/><path fill="#AF3C41" d="M16.991 26.876l15.762-13.34L16.99.199 1.229 13.537z"/><path fill="#7A2A2E" d="M16.991 24.41l12.848-10.873L16.99 2.664 4.143 13.537z"/><path d="M4.496 13.537L16.991 24.11l12.495-10.574L16.99 2.963 4.496 13.537zm12.495 11.172L3.79 13.537l13.2-11.172 13.201 11.172L16.99 24.709z" fill="#FB535A"/><path fill="#5B532E" d="M.338 17.078l14.418 12.295-.12-.736L.219 16.342z"/><path fill="#AF9B40" d="M16.345 27.537l-14.4-12.19-1.726.995 14.417 12.295z"/><path fill="#5B532E" d="M14.636 28.637l.12.736 1.709-1.1-.12-.736z"/><path fill="gold" d="M1.403 18.032l-.126-.772 1.686-1.083.061.096-1.622 1.042.113.699zm1.335 1.102l-.126-.772 1.686-1.082.062.095-1.623 1.042.114.7zm1.352 1.208l-.125-.773 1.685-1.082.062.096-1.622 1.042.113.699zm1.336 1.102l-.126-.772 1.686-1.083.062.096-1.623 1.042.114.699zm1.335 1.103l-.125-.773 1.685-1.082.062.096-1.623 1.041.114.7zm1.336 1.102l-.126-.773 1.686-1.082.061.096-1.622 1.042.113.699zm1.352 1.207l-.126-.772L11.01 23l.062.096-1.623 1.042.114.7zm1.335 1.103l-.125-.773 1.685-1.082.062.096-1.623 1.042.114.698zm1.483 1.296l-.126-.772 1.686-1.083.062.096-1.623 1.042.114.699zm1.335 1.103l-.125-.773 1.685-1.082.062.096-1.622 1.041.113.7z"/><path fill="#5B532E" d="M19.48 28.637l-.12.736 14.418-12.295.12-.736z"/><path fill="#AF9B40" d="M17.77 27.537l14.401-12.19 1.727.995L19.48 28.637z"/><path fill="#5B532E" d="M17.651 28.272l1.71 1.1.12-.735-1.71-1.1z"/><path fill="gold" d="M32.714 18.032l-.113-.018.113-.7-1.622-1.04.062-.097 1.685 1.083zm-1.336 1.102l-.113-.018.114-.699-1.623-1.042.062-.095 1.686 1.082zm-1.352 1.208l-.113-.018.114-.7-1.623-1.041.062-.096 1.685 1.082zm-1.336 1.102l-.112-.018.113-.699-1.622-1.042.061-.096 1.686 1.083zm-1.335 1.103l-.113-.019.114-.699-1.623-1.041.062-.096 1.686 1.082zm-1.335 1.102l-.113-.018.114-.7-1.623-1.041.062-.096 1.685 1.082zm-1.353 1.207l-.113-.018.114-.699-1.623-1.042.062-.096 1.686 1.083zm-1.335 1.103l-.113-.019.114-.698L21.71 24.2l.062-.096 1.685 1.082zm-1.482 1.296l-.114-.018.114-.699-1.622-1.042.061-.096 1.686 1.083zm-1.336 1.103l-.113-.019.114-.699-1.623-1.041.062-.096 1.686 1.082z"/><path fill="#FB535A" d="M4.143 13.537l.22.186.474-.405-.216-.185z"/><path fill="#FB535A" d="M4.286 13.416l.218.187 2.794-2.396-.2-.171z"/><path fill="#FB535A" d="M6.764 11.319l.202.173 2.793-2.396-.183-.157z"/><path fill="#FB535A" d="M9.242 9.222l.185.159 2.793-2.396-.166-.143zm4.942-4.183l.152.13 2.79-2.391-.135-.114z"/><path fill="#FB535A" d="M11.721 7.124l.168.144 2.794-2.396-.15-.128zm4.941-4.182l.136.117.327-.282-.134-.113zM4.143 13.537l.263.222.122-.104L6.68 15.5l-.107.092.353.299.456-.391-2.761-2.368z"/><path d="M4.286 13.416l2.763 2.37 2.794-2.396-2.745-2.354-2.812 2.38zm.612-.078l2.092-1.794 2.152 1.846-2.093 1.794-2.151-1.846z" fill="#FB535A"/><path d="M6.764 11.319l2.747 2.356 2.793-2.396-2.728-2.34-2.812 2.38zm.595-.092L9.45 9.433l2.152 1.846-2.092 1.794-2.152-1.846z" fill="#FB535A"/><path d="M9.242 9.222l2.73 2.342 2.793-2.396-2.711-2.326-2.812 2.38zm.578-.106l2.092-1.794 2.152 1.846-2.092 1.794L9.82 9.116zm-3.221 6.499l.353.298.105-.09 2.152 1.846-.09.078.352.299.44-.377-2.854-2.447z" fill="#FB535A"/><path d="M6.725 15.507l2.853 2.447 2.793-2.396-2.853-2.447-2.793 2.396zm.7 0l2.093-1.794 2.152 1.845-2.092 1.795-2.152-1.846z" fill="#FB535A"/><path d="M9.186 13.396l2.853 2.447 2.794-2.396L11.979 11l-2.793 2.396zm.7 0l2.093-1.794 2.152 1.845-2.092 1.795-2.152-1.846z" fill="#FB535A"/><path d="M11.647 11.285l2.853 2.447 2.794-2.396L14.44 8.89l-2.793 2.396zm.701 0L14.44 9.49l2.152 1.845L14.5 13.13l-2.152-1.846zm-3.204 6.484l.353.299.088-.076 2.152 1.846-.074.063.353.3.423-.363-2.854-2.447z" fill="#FB535A"/><path d="M9.253 17.676l2.853 2.447 2.794-2.396-2.854-2.447-2.793 2.396zm.701 0l2.092-1.795 2.152 1.846-2.092 1.794-2.152-1.845z" fill="#FB535A"/><path d="M11.714 15.564l2.853 2.448 2.794-2.396-2.854-2.447-2.793 2.395zm.701 0l2.092-1.794 2.152 1.846-2.092 1.795-2.152-1.847z" fill="#FB535A"/><path d="M14.175 13.453l2.854 2.448 2.793-2.396-2.853-2.447-2.794 2.395zm.701 0l2.093-1.794 2.152 1.846-2.092 1.794-2.153-1.846zm-3.186 6.47l.352.299.071-.061 2.153 1.846-.057.048.353.3.405-.348-2.854-2.448z" fill="#FB535A"/><path d="M11.781 19.844l2.854 2.447 2.793-2.396-2.854-2.447-2.793 2.396zm.701 0l2.092-1.794 2.153 1.845-2.092 1.795-2.153-1.846z" fill="#FB535A"/><path d="M14.242 17.733l2.854 2.447 2.793-2.395-2.853-2.448-2.794 2.396zm.702 0l2.092-1.794 2.152 1.846-2.092 1.794-2.152-1.846z" fill="#FB535A"/><path d="M16.703 15.622l2.854 2.448 2.793-2.397-2.853-2.447-2.794 2.396zm.702 0l2.092-1.794 2.152 1.845-2.092 1.795-2.152-1.846zM14.184 5.039l2.698 2.314 2.793-2.396-1.884-1.616-.8-.677-2.807 2.375zm.545-.134l2.093-1.794 2.152 1.846-2.092 1.794-2.153-1.846z" fill="#FB535A"/><path d="M11.721 7.124l2.714 2.327 2.793-2.395-2.695-2.312-2.812 2.38zm.562-.12l2.092-1.794 2.152 1.846-2.092 1.794-2.152-1.846zm4.379-4.062l2.68 2.3.346-.296-2.697-2.282z" fill="#FB535A"/><path d="M16.556 7.074L19.41 9.52l2.793-2.396-2.853-2.447-2.794 2.396zm.702 0l2.092-1.795 2.152 1.846L19.41 8.92l-2.152-1.846z" fill="#FB535A"/><path d="M14.11 9.172l2.853 2.448 2.794-2.396-2.854-2.447-2.793 2.395zm.7 0l2.093-1.794 2.152 1.846-2.092 1.795-2.152-1.847zm4.208-4.209L21.87 7.41l.362-.31-.353-.299-.009.008-1.325-1.137L19.36 4.67z" fill="#FB535A"/><path d="M19.085 9.242l2.853 2.448 2.794-2.396-2.854-2.447-2.793 2.395zm.701 0l2.092-1.794 2.152 1.846-2.092 1.794-2.152-1.846z" fill="#FB535A"/><path d="M16.638 11.341l2.853 2.448 2.794-2.396-2.854-2.448-2.793 2.396zm.701 0l2.092-1.794 2.152 1.846-2.092 1.794-2.152-1.846zm4.207-4.21L24.4 9.58l.378-.325-.353-.299-.025.022-2.153-1.846.012-.01-.353-.298z" fill="#FB535A"/><path d="M21.613 11.41l2.854 2.448 2.793-2.396-2.854-2.447-2.793 2.396zm.702 0l2.091-1.793 2.153 1.845-2.092 1.795-2.152-1.846z" fill="#FB535A"/><path d="M19.166 13.51l2.854 2.447 2.793-2.396-2.853-2.447-2.794 2.396zm.702 0l2.092-1.795 2.152 1.846-2.092 1.795-2.152-1.846zm4.206-4.21l2.854 2.447.395-.339-.352-.299-.043.037L24.776 9.3l.028-.024-.353-.299zm-9.823 12.792l.353.298.054-.046 2.153 1.846-.04.034.22.186.392-.331-2.725-2.337z" fill="#FB535A"/><path d="M14.326 22.027l2.722 2.335 2.812-2.38-2.74-2.35-2.794 2.395zm.702 0l2.092-1.794 2.152 1.846-2.092 1.794-2.152-1.846z" fill="#FB535A"/><path d="M16.788 19.916l2.738 2.349 2.812-2.38-2.757-2.365-2.793 2.396zm.7 0l2.093-1.794 2.152 1.846-2.092 1.794-2.152-1.846z" fill="#FB535A"/><path d="M19.249 17.805l2.754 2.363 2.813-2.38-2.774-2.379-2.793 2.396zm.701 0l2.092-1.794 2.152 1.846-2.092 1.794-2.152-1.846zm-3.153 6.441l.194.164.392-.331-.196-.168z" fill="#FB535A"/><path fill="#FB535A" d="M16.855 24.196l.193.166 2.812-2.38-.212-.182z"/><path fill="#FB535A" d="M19.316 22.085l.21.18 2.812-2.38-.229-.196z"/><path fill="#FB535A" d="M21.777 19.974l.227.194 2.811-2.38-.245-.21zm2.381-6.38l2.788 2.391 2.812-2.38-2.806-2.407-2.794 2.396zm.702 0l2.092-1.794 2.152 1.845-2.092 1.795-2.152-1.846z"/><path d="M21.712 15.693l2.77 2.377 2.813-2.38-2.79-2.393-2.793 2.396zm.701 0l2.092-1.794 2.152 1.845-2.092 1.795-2.152-1.846zm4.207-4.21l2.804 2.405.415-.351-.306-.26-.06.052-2.152-1.846.045-.039-.353-.298z" fill="#FB535A"/><path fill="#FB535A" d="M26.687 15.763l.26.222 2.811-2.38-.278-.238z"/><path fill="#FB535A" d="M24.24 17.861l.243.209 2.812-2.38-.262-.224zm4.908-4.209l.276.236.415-.351-.28-.238z"/><path fill="#7A2A2E" d="M16.972 7.476l-7.229 6.118 7.229 6.117 7.228-6.117z"/><path d="M10.538 13.594l6.434 5.444 6.433-5.444-6.433-5.445-6.434 5.445zm6.434 6.79l-8.024-6.79 8.024-6.79 8.023 6.79-8.023 6.79z" fill="#FFF"/><path d="M12.854 13.594l4.118 3.484 4.117-3.484-4.117-3.485-4.118 3.485zm4.118 3.783L12.5 13.594l4.47-3.784 4.471 3.784-4.47 3.783z" fill="#FFF"/><path fill="#FFF" d="M17.006 12.667l-2.718 2.3 2.718 2.3 2.717-2.3z"/></g><g filter="url(#e)" transform="rotate(-44 57.781 9.532)"><path fill="#5B532E" d="M1.72 14.673l-1.588-1.37.106.747 1.589 1.37z"/><path fill="#AF9B40" d="M16.86 1.819L15.287.556.132 13.303l1.588 1.37z"/><path fill="#4F4F4F" d="M16.86 1.819l.106.747L1.826 15.42l-.106-.747z"/><path fill="gold" d="M3.15 13.392l-1.585-1.365.075-.086 1.585 1.364zm1.372-1.141l-1.585-1.364.074-.086 1.586 1.364zm1.372-1.14L4.309 9.747l.074-.086 1.586 1.364zm1.372-1.14L5.68 8.607l.075-.086L7.34 9.885zm1.502-1.245L7.173 7.372l.075-.086 1.594 1.353zm1.364-1.15L8.537 6.223l.075-.087 1.594 1.354zm1.364-1.149L9.901 5.074l.075-.087L11.57 6.34zm1.364-1.149l-1.595-1.354.075-.086 1.594 1.353zm1.273-1.122l-1.595-1.353.075-.087 1.594 1.353zm1.364-1.149l-1.595-1.354.075-.087L15.57 2.92z"/><path fill="#5B532E" d="M32.41 14.673l1.59-1.37-.107.747-1.588 1.37z"/><path fill="#AF9B40" d="M17.27 1.819L18.844.556l15.155 12.747-1.589 1.37z"/><path fill="#4F4F4F" d="M17.27 1.819l-.106.747 15.14 12.854.106-.747z"/><path fill="gold" d="M30.98 13.392l-.074-.087 1.585-1.364.075.086zm-1.372-1.141l-.074-.086 1.585-1.364.075.086zm-1.371-1.14l-.075-.086 1.585-1.364.075.086zm-1.372-1.14l-.075-.086 1.586-1.364.074.086zm-1.503-1.245l-.074-.087 1.595-1.353.074.086zm-1.364-1.15l-.074-.086 1.595-1.354.074.087zm-1.364-1.149l-.074-.087 1.595-1.353.074.087zM21.27 5.278l-.074-.087 1.595-1.353.074.086zm-1.273-1.122l-.074-.087 1.595-1.353.074.087zm-1.364-1.149l-.074-.087 1.595-1.354.074.087z"/><path fill="#802428" d="M16.99 13.537v15.982L32.754 16.18v-2.643z"/><path fill="#973135" d="M1.216 13.537v2.643l15.762 13.34V13.536z"/><path fill="#AF3C41" d="M16.991 26.876l15.762-13.34L16.99.199 1.229 13.537z"/><path fill="#7A2A2E" d="M16.991 24.41l12.848-10.873L16.99 2.664 4.143 13.537z"/><path d="M4.496 13.537L16.991 24.11l12.495-10.574L16.99 2.963 4.496 13.537zm12.495 11.172L3.79 13.537l13.2-11.172 13.201 11.172L16.99 24.709z" fill="#FB535A"/><path fill="#5B532E" d="M.338 17.078l14.418 12.295-.12-.736L.219 16.342z"/><path fill="#AF9B40" d="M16.345 27.537l-14.4-12.19-1.726.995 14.417 12.295z"/><path fill="#5B532E" d="M14.636 28.637l.12.736 1.709-1.1-.12-.736z"/><path fill="gold" d="M1.403 18.032l-.126-.772 1.686-1.083.061.096-1.622 1.042.113.699zm1.335 1.102l-.126-.772 1.686-1.082.062.095-1.623 1.042.114.7zm1.352 1.208l-.125-.773 1.685-1.082.062.096-1.622 1.042.113.699zm1.336 1.102l-.126-.772 1.686-1.083.062.096-1.623 1.042.114.699zm1.335 1.103l-.125-.773 1.685-1.082.062.096-1.623 1.041.114.7zm1.336 1.102l-.126-.773 1.686-1.082.061.096-1.622 1.042.113.699zm1.352 1.207l-.126-.772L11.01 23l.062.096-1.623 1.042.114.7zm1.335 1.103l-.125-.773 1.685-1.082.062.096-1.623 1.042.114.698zm1.483 1.296l-.126-.772 1.686-1.083.062.096-1.623 1.042.114.699zm1.335 1.103l-.125-.773 1.685-1.082.062.096-1.622 1.041.113.7z"/><path fill="#5B532E" d="M19.48 28.637l-.12.736 14.418-12.295.12-.736z"/><path fill="#AF9B40" d="M17.77 27.537l14.401-12.19 1.727.995L19.48 28.637z"/><path fill="#5B532E" d="M17.651 28.272l1.71 1.1.12-.735-1.71-1.1z"/><path fill="gold" d="M32.714 18.032l-.113-.018.113-.7-1.622-1.04.062-.097 1.685 1.083zm-1.336 1.102l-.113-.018.114-.699-1.623-1.042.062-.095 1.686 1.082zm-1.352 1.208l-.113-.018.114-.7-1.623-1.041.062-.096 1.685 1.082zm-1.336 1.102l-.112-.018.113-.699-1.622-1.042.061-.096 1.686 1.083zm-1.335 1.103l-.113-.019.114-.699-1.623-1.041.062-.096 1.686 1.082zm-1.335 1.102l-.113-.018.114-.7-1.623-1.041.062-.096 1.685 1.082zm-1.353 1.207l-.113-.018.114-.699-1.623-1.042.062-.096 1.686 1.083zm-1.335 1.103l-.113-.019.114-.698L21.71 24.2l.062-.096 1.685 1.082zm-1.482 1.296l-.114-.018.114-.699-1.622-1.042.061-.096 1.686 1.083zm-1.336 1.103l-.113-.019.114-.699-1.623-1.041.062-.096 1.686 1.082z"/><path fill="#FB535A" d="M4.143 13.537l.22.186.474-.405-.216-.185z"/><path fill="#FB535A" d="M4.286 13.416l.218.187 2.794-2.396-.2-.171z"/><path fill="#FB535A" d="M6.764 11.319l.202.173 2.793-2.396-.183-.157z"/><path fill="#FB535A" d="M9.242 9.222l.185.159 2.793-2.396-.166-.143zm4.942-4.183l.152.13 2.79-2.391-.135-.114z"/><path fill="#FB535A" d="M11.721 7.124l.168.144 2.794-2.396-.15-.128zm4.941-4.182l.136.117.327-.282-.134-.113zM4.143 13.537l.263.222.122-.104L6.68 15.5l-.107.092.353.299.456-.391-2.761-2.368z"/><path d="M4.286 13.416l2.763 2.37 2.794-2.396-2.745-2.354-2.812 2.38zm.612-.078l2.092-1.794 2.152 1.846-2.093 1.794-2.151-1.846z" fill="#FB535A"/><path d="M6.764 11.319l2.747 2.356 2.793-2.396-2.728-2.34-2.812 2.38zm.595-.092L9.45 9.433l2.152 1.846-2.092 1.794-2.152-1.846z" fill="#FB535A"/><path d="M9.242 9.222l2.73 2.342 2.793-2.396-2.711-2.326-2.812 2.38zm.578-.106l2.092-1.794 2.152 1.846-2.092 1.794L9.82 9.116zm-3.221 6.499l.353.298.105-.09 2.152 1.846-.09.078.352.299.44-.377-2.854-2.447z" fill="#FB535A"/><path d="M6.725 15.507l2.853 2.447 2.793-2.396-2.853-2.447-2.793 2.396zm.7 0l2.093-1.794 2.152 1.845-2.092 1.795-2.152-1.846z" fill="#FB535A"/><path d="M9.186 13.396l2.853 2.447 2.794-2.396L11.979 11l-2.793 2.396zm.7 0l2.093-1.794 2.152 1.845-2.092 1.795-2.152-1.846z" fill="#FB535A"/><path d="M11.647 11.285l2.853 2.447 2.794-2.396L14.44 8.89l-2.793 2.396zm.701 0L14.44 9.49l2.152 1.845L14.5 13.13l-2.152-1.846zm-3.204 6.484l.353.299.088-.076 2.152 1.846-.074.063.353.3.423-.363-2.854-2.447z" fill="#FB535A"/><path d="M9.253 17.676l2.853 2.447 2.794-2.396-2.854-2.447-2.793 2.396zm.701 0l2.092-1.795 2.152 1.846-2.092 1.794-2.152-1.845z" fill="#FB535A"/><path d="M11.714 15.564l2.853 2.448 2.794-2.396-2.854-2.447-2.793 2.395zm.701 0l2.092-1.794 2.152 1.846-2.092 1.795-2.152-1.847z" fill="#FB535A"/><path d="M14.175 13.453l2.854 2.448 2.793-2.396-2.853-2.447-2.794 2.395zm.701 0l2.093-1.794 2.152 1.846-2.092 1.794-2.153-1.846zm-3.186 6.47l.352.299.071-.061 2.153 1.846-.057.048.353.3.405-.348-2.854-2.448z" fill="#FB535A"/><path d="M11.781 19.844l2.854 2.447 2.793-2.396-2.854-2.447-2.793 2.396zm.701 0l2.092-1.794 2.153 1.845-2.092 1.795-2.153-1.846z" fill="#FB535A"/><path d="M14.242 17.733l2.854 2.447 2.793-2.395-2.853-2.448-2.794 2.396zm.702 0l2.092-1.794 2.152 1.846-2.092 1.794-2.152-1.846z" fill="#FB535A"/><path d="M16.703 15.622l2.854 2.448 2.793-2.397-2.853-2.447-2.794 2.396zm.702 0l2.092-1.794 2.152 1.845-2.092 1.795-2.152-1.846zM14.184 5.039l2.698 2.314 2.793-2.396-1.884-1.616-.8-.677-2.807 2.375zm.545-.134l2.093-1.794 2.152 1.846-2.092 1.794-2.153-1.846z" fill="#FB535A"/><path d="M11.721 7.124l2.714 2.327 2.793-2.395-2.695-2.312-2.812 2.38zm.562-.12l2.092-1.794 2.152 1.846-2.092 1.794-2.152-1.846zm4.379-4.062l2.68 2.3.346-.296-2.697-2.282z" fill="#FB535A"/><path d="M16.556 7.074L19.41 9.52l2.793-2.396-2.853-2.447-2.794 2.396zm.702 0l2.092-1.795 2.152 1.846L19.41 8.92l-2.152-1.846z" fill="#FB535A"/><path d="M14.11 9.172l2.853 2.448 2.794-2.396-2.854-2.447-2.793 2.395zm.7 0l2.093-1.794 2.152 1.846-2.092 1.795-2.152-1.847zm4.208-4.209L21.87 7.41l.362-.31-.353-.299-.009.008-1.325-1.137L19.36 4.67z" fill="#FB535A"/><path d="M19.085 9.242l2.853 2.448 2.794-2.396-2.854-2.447-2.793 2.395zm.701 0l2.092-1.794 2.152 1.846-2.092 1.794-2.152-1.846z" fill="#FB535A"/><path d="M16.638 11.341l2.853 2.448 2.794-2.396-2.854-2.448-2.793 2.396zm.701 0l2.092-1.794 2.152 1.846-2.092 1.794-2.152-1.846zm4.207-4.21L24.4 9.58l.378-.325-.353-.299-.025.022-2.153-1.846.012-.01-.353-.298z" fill="#FB535A"/><path d="M21.613 11.41l2.854 2.448 2.793-2.396-2.854-2.447-2.793 2.396zm.702 0l2.091-1.793 2.153 1.845-2.092 1.795-2.152-1.846z" fill="#FB535A"/><path d="M19.166 13.51l2.854 2.447 2.793-2.396-2.853-2.447-2.794 2.396zm.702 0l2.092-1.795 2.152 1.846-2.092 1.795-2.152-1.846zm4.206-4.21l2.854 2.447.395-.339-.352-.299-.043.037L24.776 9.3l.028-.024-.353-.299zm-9.823 12.792l.353.298.054-.046 2.153 1.846-.04.034.22.186.392-.331-2.725-2.337z" fill="#FB535A"/><path d="M14.326 22.027l2.722 2.335 2.812-2.38-2.74-2.35-2.794 2.395zm.702 0l2.092-1.794 2.152 1.846-2.092 1.794-2.152-1.846z" fill="#FB535A"/><path d="M16.788 19.916l2.738 2.349 2.812-2.38-2.757-2.365-2.793 2.396zm.7 0l2.093-1.794 2.152 1.846-2.092 1.794-2.152-1.846z" fill="#FB535A"/><path d="M19.249 17.805l2.754 2.363 2.813-2.38-2.774-2.379-2.793 2.396zm.701 0l2.092-1.794 2.152 1.846-2.092 1.794-2.152-1.846zm-3.153 6.441l.194.164.392-.331-.196-.168z" fill="#FB535A"/><path fill="#FB535A" d="M16.855 24.196l.193.166 2.812-2.38-.212-.182z"/><path fill="#FB535A" d="M19.316 22.085l.21.18 2.812-2.38-.229-.196z"/><path fill="#FB535A" d="M21.777 19.974l.227.194 2.811-2.38-.245-.21zm2.381-6.38l2.788 2.391 2.812-2.38-2.806-2.407-2.794 2.396zm.702 0l2.092-1.794 2.152 1.845-2.092 1.795-2.152-1.846z"/><path d="M21.712 15.693l2.77 2.377 2.813-2.38-2.79-2.393-2.793 2.396zm.701 0l2.092-1.794 2.152 1.845-2.092 1.795-2.152-1.846zm4.207-4.21l2.804 2.405.415-.351-.306-.26-.06.052-2.152-1.846.045-.039-.353-.298z" fill="#FB535A"/><path fill="#FB535A" d="M26.687 15.763l.26.222 2.811-2.38-.278-.238z"/><path fill="#FB535A" d="M24.24 17.861l.243.209 2.812-2.38-.262-.224zm4.908-4.209l.276.236.415-.351-.28-.238z"/><path fill="#7A2A2E" d="M16.972 7.476l-7.229 6.118 7.229 6.117 7.228-6.117z"/><path d="M10.538 13.594l6.434 5.444 6.433-5.444-6.433-5.445-6.434 5.445zm6.434 6.79l-8.024-6.79 8.024-6.79 8.023 6.79-8.023 6.79z" fill="#FFF"/><path d="M12.854 13.594l4.118 3.484 4.117-3.484-4.117-3.485-4.118 3.485zm4.118 3.783L12.5 13.594l4.47-3.784 4.471 3.784-4.47 3.783z" fill="#FFF"/><path fill="#FFF" d="M17.006 12.667l-2.718 2.3 2.718 2.3 2.717-2.3z"/></g><g filter="url(#f)" transform="rotate(-14 167.931 25.957)"><path fill="#5B532E" d="M1.72 14.673l-1.588-1.37.106.747 1.589 1.37z"/><path fill="#AF9B40" d="M16.86 1.819L15.287.556.132 13.303l1.588 1.37z"/><path fill="#4F4F4F" d="M16.86 1.819l.106.747L1.826 15.42l-.106-.747z"/><path fill="gold" d="M3.15 13.392l-1.585-1.365.075-.086 1.585 1.364zm1.372-1.141l-1.585-1.364.074-.086 1.586 1.364zm1.372-1.14L4.309 9.747l.074-.086 1.586 1.364zm1.372-1.14L5.68 8.607l.075-.086L7.34 9.885zm1.502-1.245L7.173 7.372l.075-.086 1.594 1.353zm1.364-1.15L8.537 6.223l.075-.087 1.594 1.354zm1.364-1.149L9.901 5.074l.075-.087L11.57 6.34zm1.364-1.149l-1.595-1.354.075-.086 1.594 1.353zm1.273-1.122l-1.595-1.353.075-.087 1.594 1.353zm1.364-1.149l-1.595-1.354.075-.087L15.57 2.92z"/><path fill="#5B532E" d="M32.41 14.673l1.59-1.37-.107.747-1.588 1.37z"/><path fill="#AF9B40" d="M17.27 1.819L18.844.556l15.155 12.747-1.589 1.37z"/><path fill="#4F4F4F" d="M17.27 1.819l-.106.747 15.14 12.854.106-.747z"/><path fill="gold" d="M30.98 13.392l-.074-.087 1.585-1.364.075.086zm-1.372-1.141l-.074-.086 1.585-1.364.075.086zm-1.371-1.14l-.075-.086 1.585-1.364.075.086zm-1.372-1.14l-.075-.086 1.586-1.364.074.086zm-1.503-1.245l-.074-.087 1.595-1.353.074.086zm-1.364-1.15l-.074-.086 1.595-1.354.074.087zm-1.364-1.149l-.074-.087 1.595-1.353.074.087zM21.27 5.278l-.074-.087 1.595-1.353.074.086zm-1.273-1.122l-.074-.087 1.595-1.353.074.087zm-1.364-1.149l-.074-.087 1.595-1.354.074.087z"/><path fill="#802428" d="M16.99 13.537v15.982L32.754 16.18v-2.643z"/><path fill="#973135" d="M1.216 13.537v2.643l15.762 13.34V13.536z"/><path fill="#AF3C41" d="M16.991 26.876l15.762-13.34L16.99.199 1.229 13.537z"/><path fill="#7A2A2E" d="M16.991 24.41l12.848-10.873L16.99 2.664 4.143 13.537z"/><path d="M4.496 13.537L16.991 24.11l12.495-10.574L16.99 2.963 4.496 13.537zm12.495 11.172L3.79 13.537l13.2-11.172 13.201 11.172L16.99 24.709z" fill="#FB535A"/><path fill="#5B532E" d="M.338 17.078l14.418 12.295-.12-.736L.219 16.342z"/><path fill="#AF9B40" d="M16.345 27.537l-14.4-12.19-1.726.995 14.417 12.295z"/><path fill="#5B532E" d="M14.636 28.637l.12.736 1.709-1.1-.12-.736z"/><path fill="gold" d="M1.403 18.032l-.126-.772 1.686-1.083.061.096-1.622 1.042.113.699zm1.335 1.102l-.126-.772 1.686-1.082.062.095-1.623 1.042.114.7zm1.352 1.208l-.125-.773 1.685-1.082.062.096-1.622 1.042.113.699zm1.336 1.102l-.126-.772 1.686-1.083.062.096-1.623 1.042.114.699zm1.335 1.103l-.125-.773 1.685-1.082.062.096-1.623 1.041.114.7zm1.336 1.102l-.126-.773 1.686-1.082.061.096-1.622 1.042.113.699zm1.352 1.207l-.126-.772L11.01 23l.062.096-1.623 1.042.114.7zm1.335 1.103l-.125-.773 1.685-1.082.062.096-1.623 1.042.114.698zm1.483 1.296l-.126-.772 1.686-1.083.062.096-1.623 1.042.114.699zm1.335 1.103l-.125-.773 1.685-1.082.062.096-1.622 1.041.113.7z"/><path fill="#5B532E" d="M19.48 28.637l-.12.736 14.418-12.295.12-.736z"/><path fill="#AF9B40" d="M17.77 27.537l14.401-12.19 1.727.995L19.48 28.637z"/><path fill="#5B532E" d="M17.651 28.272l1.71 1.1.12-.735-1.71-1.1z"/><path fill="gold" d="M32.714 18.032l-.113-.018.113-.7-1.622-1.04.062-.097 1.685 1.083zm-1.336 1.102l-.113-.018.114-.699-1.623-1.042.062-.095 1.686 1.082zm-1.352 1.208l-.113-.018.114-.7-1.623-1.041.062-.096 1.685 1.082zm-1.336 1.102l-.112-.018.113-.699-1.622-1.042.061-.096 1.686 1.083zm-1.335 1.103l-.113-.019.114-.699-1.623-1.041.062-.096 1.686 1.082zm-1.335 1.102l-.113-.018.114-.7-1.623-1.041.062-.096 1.685 1.082zm-1.353 1.207l-.113-.018.114-.699-1.623-1.042.062-.096 1.686 1.083zm-1.335 1.103l-.113-.019.114-.698L21.71 24.2l.062-.096 1.685 1.082zm-1.482 1.296l-.114-.018.114-.699-1.622-1.042.061-.096 1.686 1.083zm-1.336 1.103l-.113-.019.114-.699-1.623-1.041.062-.096 1.686 1.082z"/><path fill="#FB535A" d="M4.143 13.537l.22.186.474-.405-.216-.185z"/><path fill="#FB535A" d="M4.286 13.416l.218.187 2.794-2.396-.2-.171z"/><path fill="#FB535A" d="M6.764 11.319l.202.173 2.793-2.396-.183-.157z"/><path fill="#FB535A" d="M9.242 9.222l.185.159 2.793-2.396-.166-.143zm4.942-4.183l.152.13 2.79-2.391-.135-.114z"/><path fill="#FB535A" d="M11.721 7.124l.168.144 2.794-2.396-.15-.128zm4.941-4.182l.136.117.327-.282-.134-.113zM4.143 13.537l.263.222.122-.104L6.68 15.5l-.107.092.353.299.456-.391-2.761-2.368z"/><path d="M4.286 13.416l2.763 2.37 2.794-2.396-2.745-2.354-2.812 2.38zm.612-.078l2.092-1.794 2.152 1.846-2.093 1.794-2.151-1.846z" fill="#FB535A"/><path d="M6.764 11.319l2.747 2.356 2.793-2.396-2.728-2.34-2.812 2.38zm.595-.092L9.45 9.433l2.152 1.846-2.092 1.794-2.152-1.846z" fill="#FB535A"/><path d="M9.242 9.222l2.73 2.342 2.793-2.396-2.711-2.326-2.812 2.38zm.578-.106l2.092-1.794 2.152 1.846-2.092 1.794L9.82 9.116zm-3.221 6.499l.353.298.105-.09 2.152 1.846-.09.078.352.299.44-.377-2.854-2.447z" fill="#FB535A"/><path d="M6.725 15.507l2.853 2.447 2.793-2.396-2.853-2.447-2.793 2.396zm.7 0l2.093-1.794 2.152 1.845-2.092 1.795-2.152-1.846z" fill="#FB535A"/><path d="M9.186 13.396l2.853 2.447 2.794-2.396L11.979 11l-2.793 2.396zm.7 0l2.093-1.794 2.152 1.845-2.092 1.795-2.152-1.846z" fill="#FB535A"/><path d="M11.647 11.285l2.853 2.447 2.794-2.396L14.44 8.89l-2.793 2.396zm.701 0L14.44 9.49l2.152 1.845L14.5 13.13l-2.152-1.846zm-3.204 6.484l.353.299.088-.076 2.152 1.846-.074.063.353.3.423-.363-2.854-2.447z" fill="#FB535A"/><path d="M9.253 17.676l2.853 2.447 2.794-2.396-2.854-2.447-2.793 2.396zm.701 0l2.092-1.795 2.152 1.846-2.092 1.794-2.152-1.845z" fill="#FB535A"/><path d="M11.714 15.564l2.853 2.448 2.794-2.396-2.854-2.447-2.793 2.395zm.701 0l2.092-1.794 2.152 1.846-2.092 1.795-2.152-1.847z" fill="#FB535A"/><path d="M14.175 13.453l2.854 2.448 2.793-2.396-2.853-2.447-2.794 2.395zm.701 0l2.093-1.794 2.152 1.846-2.092 1.794-2.153-1.846zm-3.186 6.47l.352.299.071-.061 2.153 1.846-.057.048.353.3.405-.348-2.854-2.448z" fill="#FB535A"/><path d="M11.781 19.844l2.854 2.447 2.793-2.396-2.854-2.447-2.793 2.396zm.701 0l2.092-1.794 2.153 1.845-2.092 1.795-2.153-1.846z" fill="#FB535A"/><path d="M14.242 17.733l2.854 2.447 2.793-2.395-2.853-2.448-2.794 2.396zm.702 0l2.092-1.794 2.152 1.846-2.092 1.794-2.152-1.846z" fill="#FB535A"/><path d="M16.703 15.622l2.854 2.448 2.793-2.397-2.853-2.447-2.794 2.396zm.702 0l2.092-1.794 2.152 1.845-2.092 1.795-2.152-1.846zM14.184 5.039l2.698 2.314 2.793-2.396-1.884-1.616-.8-.677-2.807 2.375zm.545-.134l2.093-1.794 2.152 1.846-2.092 1.794-2.153-1.846z" fill="#FB535A"/><path d="M11.721 7.124l2.714 2.327 2.793-2.395-2.695-2.312-2.812 2.38zm.562-.12l2.092-1.794 2.152 1.846-2.092 1.794-2.152-1.846zm4.379-4.062l2.68 2.3.346-.296-2.697-2.282z" fill="#FB535A"/><path d="M16.556 7.074L19.41 9.52l2.793-2.396-2.853-2.447-2.794 2.396zm.702 0l2.092-1.795 2.152 1.846L19.41 8.92l-2.152-1.846z" fill="#FB535A"/><path d="M14.11 9.172l2.853 2.448 2.794-2.396-2.854-2.447-2.793 2.395zm.7 0l2.093-1.794 2.152 1.846-2.092 1.795-2.152-1.847zm4.208-4.209L21.87 7.41l.362-.31-.353-.299-.009.008-1.325-1.137L19.36 4.67z" fill="#FB535A"/><path d="M19.085 9.242l2.853 2.448 2.794-2.396-2.854-2.447-2.793 2.395zm.701 0l2.092-1.794 2.152 1.846-2.092 1.794-2.152-1.846z" fill="#FB535A"/><path d="M16.638 11.341l2.853 2.448 2.794-2.396-2.854-2.448-2.793 2.396zm.701 0l2.092-1.794 2.152 1.846-2.092 1.794-2.152-1.846zm4.207-4.21L24.4 9.58l.378-.325-.353-.299-.025.022-2.153-1.846.012-.01-.353-.298z" fill="#FB535A"/><path d="M21.613 11.41l2.854 2.448 2.793-2.396-2.854-2.447-2.793 2.396zm.702 0l2.091-1.793 2.153 1.845-2.092 1.795-2.152-1.846z" fill="#FB535A"/><path d="M19.166 13.51l2.854 2.447 2.793-2.396-2.853-2.447-2.794 2.396zm.702 0l2.092-1.795 2.152 1.846-2.092 1.795-2.152-1.846zm4.206-4.21l2.854 2.447.395-.339-.352-.299-.043.037L24.776 9.3l.028-.024-.353-.299zm-9.823 12.792l.353.298.054-.046 2.153 1.846-.04.034.22.186.392-.331-2.725-2.337z" fill="#FB535A"/><path d="M14.326 22.027l2.722 2.335 2.812-2.38-2.74-2.35-2.794 2.395zm.702 0l2.092-1.794 2.152 1.846-2.092 1.794-2.152-1.846z" fill="#FB535A"/><path d="M16.788 19.916l2.738 2.349 2.812-2.38-2.757-2.365-2.793 2.396zm.7 0l2.093-1.794 2.152 1.846-2.092 1.794-2.152-1.846z" fill="#FB535A"/><path d="M19.249 17.805l2.754 2.363 2.813-2.38-2.774-2.379-2.793 2.396zm.701 0l2.092-1.794 2.152 1.846-2.092 1.794-2.152-1.846zm-3.153 6.441l.194.164.392-.331-.196-.168z" fill="#FB535A"/><path fill="#FB535A" d="M16.855 24.196l.193.166 2.812-2.38-.212-.182z"/><path fill="#FB535A" d="M19.316 22.085l.21.18 2.812-2.38-.229-.196z"/><path fill="#FB535A" d="M21.777 19.974l.227.194 2.811-2.38-.245-.21zm2.381-6.38l2.788 2.391 2.812-2.38-2.806-2.407-2.794 2.396zm.702 0l2.092-1.794 2.152 1.845-2.092 1.795-2.152-1.846z"/><path d="M21.712 15.693l2.77 2.377 2.813-2.38-2.79-2.393-2.793 2.396zm.701 0l2.092-1.794 2.152 1.845-2.092 1.795-2.152-1.846zm4.207-4.21l2.804 2.405.415-.351-.306-.26-.06.052-2.152-1.846.045-.039-.353-.298z" fill="#FB535A"/><path fill="#FB535A" d="M26.687 15.763l.26.222 2.811-2.38-.278-.238z"/><path fill="#FB535A" d="M24.24 17.861l.243.209 2.812-2.38-.262-.224zm4.908-4.209l.276.236.415-.351-.28-.238z"/><path fill="#7A2A2E" d="M16.972 7.476l-7.229 6.118 7.229 6.117 7.228-6.117z"/><path d="M10.538 13.594l6.434 5.444 6.433-5.444-6.433-5.445-6.434 5.445zm6.434 6.79l-8.024-6.79 8.024-6.79 8.023 6.79-8.023 6.79z" fill="#FFF"/><path d="M12.854 13.594l4.118 3.484 4.117-3.484-4.117-3.485-4.118 3.485zm4.118 3.783L12.5 13.594l4.47-3.784 4.471 3.784-4.47 3.783z" fill="#FFF"/><path fill="#FFF" d="M17.006 12.667l-2.718 2.3 2.718 2.3 2.717-2.3z"/></g><g filter="url(#g)" transform="rotate(26 13.876 94.391)"><path fill="#5B532E" d="M1.72 14.673l-1.588-1.37.106.747 1.589 1.37z"/><path fill="#AF9B40" d="M16.86 1.819L15.287.556.132 13.303l1.588 1.37z"/><path fill="#4F4F4F" d="M16.86 1.819l.106.747L1.826 15.42l-.106-.747z"/><path fill="gold" d="M3.15 13.392l-1.585-1.365.075-.086 1.585 1.364zm1.372-1.141l-1.585-1.364.074-.086 1.586 1.364zm1.372-1.14L4.309 9.747l.074-.086 1.586 1.364zm1.372-1.14L5.68 8.607l.075-.086L7.34 9.885zm1.502-1.245L7.173 7.372l.075-.086 1.594 1.353zm1.364-1.15L8.537 6.223l.075-.087 1.594 1.354zm1.364-1.149L9.901 5.074l.075-.087L11.57 6.34zm1.364-1.149l-1.595-1.354.075-.086 1.594 1.353zm1.273-1.122l-1.595-1.353.075-.087 1.594 1.353zm1.364-1.149l-1.595-1.354.075-.087L15.57 2.92z"/><path fill="#5B532E" d="M32.41 14.673l1.59-1.37-.107.747-1.588 1.37z"/><path fill="#AF9B40" d="M17.27 1.819L18.844.556l15.155 12.747-1.589 1.37z"/><path fill="#4F4F4F" d="M17.27 1.819l-.106.747 15.14 12.854.106-.747z"/><path fill="gold" d="M30.98 13.392l-.074-.087 1.585-1.364.075.086zm-1.372-1.141l-.074-.086 1.585-1.364.075.086zm-1.371-1.14l-.075-.086 1.585-1.364.075.086zm-1.372-1.14l-.075-.086 1.586-1.364.074.086zm-1.503-1.245l-.074-.087 1.595-1.353.074.086zm-1.364-1.15l-.074-.086 1.595-1.354.074.087zm-1.364-1.149l-.074-.087 1.595-1.353.074.087zM21.27 5.278l-.074-.087 1.595-1.353.074.086zm-1.273-1.122l-.074-.087 1.595-1.353.074.087zm-1.364-1.149l-.074-.087 1.595-1.354.074.087z"/><path fill="#802428" d="M16.99 13.537v15.982L32.754 16.18v-2.643z"/><path fill="#973135" d="M1.216 13.537v2.643l15.762 13.34V13.536z"/><path fill="#AF3C41" d="M16.991 26.876l15.762-13.34L16.99.199 1.229 13.537z"/><path fill="#7A2A2E" d="M16.991 24.41l12.848-10.873L16.99 2.664 4.143 13.537z"/><path d="M4.496 13.537L16.991 24.11l12.495-10.574L16.99 2.963 4.496 13.537zm12.495 11.172L3.79 13.537l13.2-11.172 13.201 11.172L16.99 24.709z" fill="#FB535A"/><path fill="#5B532E" d="M.338 17.078l14.418 12.295-.12-.736L.219 16.342z"/><path fill="#AF9B40" d="M16.345 27.537l-14.4-12.19-1.726.995 14.417 12.295z"/><path fill="#5B532E" d="M14.636 28.637l.12.736 1.709-1.1-.12-.736z"/><path fill="gold" d="M1.403 18.032l-.126-.772 1.686-1.083.061.096-1.622 1.042.113.699zm1.335 1.102l-.126-.772 1.686-1.082.062.095-1.623 1.042.114.7zm1.352 1.208l-.125-.773 1.685-1.082.062.096-1.622 1.042.113.699zm1.336 1.102l-.126-.772 1.686-1.083.062.096-1.623 1.042.114.699zm1.335 1.103l-.125-.773 1.685-1.082.062.096-1.623 1.041.114.7zm1.336 1.102l-.126-.773 1.686-1.082.061.096-1.622 1.042.113.699zm1.352 1.207l-.126-.772L11.01 23l.062.096-1.623 1.042.114.7zm1.335 1.103l-.125-.773 1.685-1.082.062.096-1.623 1.042.114.698zm1.483 1.296l-.126-.772 1.686-1.083.062.096-1.623 1.042.114.699zm1.335 1.103l-.125-.773 1.685-1.082.062.096-1.622 1.041.113.7z"/><path fill="#5B532E" d="M19.48 28.637l-.12.736 14.418-12.295.12-.736z"/><path fill="#AF9B40" d="M17.77 27.537l14.401-12.19 1.727.995L19.48 28.637z"/><path fill="#5B532E" d="M17.651 28.272l1.71 1.1.12-.735-1.71-1.1z"/><path fill="gold" d="M32.714 18.032l-.113-.018.113-.7-1.622-1.04.062-.097 1.685 1.083zm-1.336 1.102l-.113-.018.114-.699-1.623-1.042.062-.095 1.686 1.082zm-1.352 1.208l-.113-.018.114-.7-1.623-1.041.062-.096 1.685 1.082zm-1.336 1.102l-.112-.018.113-.699-1.622-1.042.061-.096 1.686 1.083zm-1.335 1.103l-.113-.019.114-.699-1.623-1.041.062-.096 1.686 1.082zm-1.335 1.102l-.113-.018.114-.7-1.623-1.041.062-.096 1.685 1.082zm-1.353 1.207l-.113-.018.114-.699-1.623-1.042.062-.096 1.686 1.083zm-1.335 1.103l-.113-.019.114-.698L21.71 24.2l.062-.096 1.685 1.082zm-1.482 1.296l-.114-.018.114-.699-1.622-1.042.061-.096 1.686 1.083zm-1.336 1.103l-.113-.019.114-.699-1.623-1.041.062-.096 1.686 1.082z"/><path fill="#FB535A" d="M4.143 13.537l.22.186.474-.405-.216-.185z"/><path fill="#FB535A" d="M4.286 13.416l.218.187 2.794-2.396-.2-.171z"/><path fill="#FB535A" d="M6.764 11.319l.202.173 2.793-2.396-.183-.157z"/><path fill="#FB535A" d="M9.242 9.222l.185.159 2.793-2.396-.166-.143zm4.942-4.183l.152.13 2.79-2.391-.135-.114z"/><path fill="#FB535A" d="M11.721 7.124l.168.144 2.794-2.396-.15-.128zm4.941-4.182l.136.117.327-.282-.134-.113zM4.143 13.537l.263.222.122-.104L6.68 15.5l-.107.092.353.299.456-.391-2.761-2.368z"/><path d="M4.286 13.416l2.763 2.37 2.794-2.396-2.745-2.354-2.812 2.38zm.612-.078l2.092-1.794 2.152 1.846-2.093 1.794-2.151-1.846z" fill="#FB535A"/><path d="M6.764 11.319l2.747 2.356 2.793-2.396-2.728-2.34-2.812 2.38zm.595-.092L9.45 9.433l2.152 1.846-2.092 1.794-2.152-1.846z" fill="#FB535A"/><path d="M9.242 9.222l2.73 2.342 2.793-2.396-2.711-2.326-2.812 2.38zm.578-.106l2.092-1.794 2.152 1.846-2.092 1.794L9.82 9.116zm-3.221 6.499l.353.298.105-.09 2.152 1.846-.09.078.352.299.44-.377-2.854-2.447z" fill="#FB535A"/><path d="M6.725 15.507l2.853 2.447 2.793-2.396-2.853-2.447-2.793 2.396zm.7 0l2.093-1.794 2.152 1.845-2.092 1.795-2.152-1.846z" fill="#FB535A"/><path d="M9.186 13.396l2.853 2.447 2.794-2.396L11.979 11l-2.793 2.396zm.7 0l2.093-1.794 2.152 1.845-2.092 1.795-2.152-1.846z" fill="#FB535A"/><path d="M11.647 11.285l2.853 2.447 2.794-2.396L14.44 8.89l-2.793 2.396zm.701 0L14.44 9.49l2.152 1.845L14.5 13.13l-2.152-1.846zm-3.204 6.484l.353.299.088-.076 2.152 1.846-.074.063.353.3.423-.363-2.854-2.447z" fill="#FB535A"/><path d="M9.253 17.676l2.853 2.447 2.794-2.396-2.854-2.447-2.793 2.396zm.701 0l2.092-1.795 2.152 1.846-2.092 1.794-2.152-1.845z" fill="#FB535A"/><path d="M11.714 15.564l2.853 2.448 2.794-2.396-2.854-2.447-2.793 2.395zm.701 0l2.092-1.794 2.152 1.846-2.092 1.795-2.152-1.847z" fill="#FB535A"/><path d="M14.175 13.453l2.854 2.448 2.793-2.396-2.853-2.447-2.794 2.395zm.701 0l2.093-1.794 2.152 1.846-2.092 1.794-2.153-1.846zm-3.186 6.47l.352.299.071-.061 2.153 1.846-.057.048.353.3.405-.348-2.854-2.448z" fill="#FB535A"/><path d="M11.781 19.844l2.854 2.447 2.793-2.396-2.854-2.447-2.793 2.396zm.701 0l2.092-1.794 2.153 1.845-2.092 1.795-2.153-1.846z" fill="#FB535A"/><path d="M14.242 17.733l2.854 2.447 2.793-2.395-2.853-2.448-2.794 2.396zm.702 0l2.092-1.794 2.152 1.846-2.092 1.794-2.152-1.846z" fill="#FB535A"/><path d="M16.703 15.622l2.854 2.448 2.793-2.397-2.853-2.447-2.794 2.396zm.702 0l2.092-1.794 2.152 1.845-2.092 1.795-2.152-1.846zM14.184 5.039l2.698 2.314 2.793-2.396-1.884-1.616-.8-.677-2.807 2.375zm.545-.134l2.093-1.794 2.152 1.846-2.092 1.794-2.153-1.846z" fill="#FB535A"/><path d="M11.721 7.124l2.714 2.327 2.793-2.395-2.695-2.312-2.812 2.38zm.562-.12l2.092-1.794 2.152 1.846-2.092 1.794-2.152-1.846zm4.379-4.062l2.68 2.3.346-.296-2.697-2.282z" fill="#FB535A"/><path d="M16.556 7.074L19.41 9.52l2.793-2.396-2.853-2.447-2.794 2.396zm.702 0l2.092-1.795 2.152 1.846L19.41 8.92l-2.152-1.846z" fill="#FB535A"/><path d="M14.11 9.172l2.853 2.448 2.794-2.396-2.854-2.447-2.793 2.395zm.7 0l2.093-1.794 2.152 1.846-2.092 1.795-2.152-1.847zm4.208-4.209L21.87 7.41l.362-.31-.353-.299-.009.008-1.325-1.137L19.36 4.67z" fill="#FB535A"/><path d="M19.085 9.242l2.853 2.448 2.794-2.396-2.854-2.447-2.793 2.395zm.701 0l2.092-1.794 2.152 1.846-2.092 1.794-2.152-1.846z" fill="#FB535A"/><path d="M16.638 11.341l2.853 2.448 2.794-2.396-2.854-2.448-2.793 2.396zm.701 0l2.092-1.794 2.152 1.846-2.092 1.794-2.152-1.846zm4.207-4.21L24.4 9.58l.378-.325-.353-.299-.025.022-2.153-1.846.012-.01-.353-.298z" fill="#FB535A"/><path d="M21.613 11.41l2.854 2.448 2.793-2.396-2.854-2.447-2.793 2.396zm.702 0l2.091-1.793 2.153 1.845-2.092 1.795-2.152-1.846z" fill="#FB535A"/><path d="M19.166 13.51l2.854 2.447 2.793-2.396-2.853-2.447-2.794 2.396zm.702 0l2.092-1.795 2.152 1.846-2.092 1.795-2.152-1.846zm4.206-4.21l2.854 2.447.395-.339-.352-.299-.043.037L24.776 9.3l.028-.024-.353-.299zm-9.823 12.792l.353.298.054-.046 2.153 1.846-.04.034.22.186.392-.331-2.725-2.337z" fill="#FB535A"/><path d="M14.326 22.027l2.722 2.335 2.812-2.38-2.74-2.35-2.794 2.395zm.702 0l2.092-1.794 2.152 1.846-2.092 1.794-2.152-1.846z" fill="#FB535A"/><path d="M16.788 19.916l2.738 2.349 2.812-2.38-2.757-2.365-2.793 2.396zm.7 0l2.093-1.794 2.152 1.846-2.092 1.794-2.152-1.846z" fill="#FB535A"/><path d="M19.249 17.805l2.754 2.363 2.813-2.38-2.774-2.379-2.793 2.396zm.701 0l2.092-1.794 2.152 1.846-2.092 1.794-2.152-1.846zm-3.153 6.441l.194.164.392-.331-.196-.168z" fill="#FB535A"/><path fill="#FB535A" d="M16.855 24.196l.193.166 2.812-2.38-.212-.182z"/><path fill="#FB535A" d="M19.316 22.085l.21.18 2.812-2.38-.229-.196z"/><path fill="#FB535A" d="M21.777 19.974l.227.194 2.811-2.38-.245-.21zm2.381-6.38l2.788 2.391 2.812-2.38-2.806-2.407-2.794 2.396zm.702 0l2.092-1.794 2.152 1.845-2.092 1.795-2.152-1.846z"/><path d="M21.712 15.693l2.77 2.377 2.813-2.38-2.79-2.393-2.793 2.396zm.701 0l2.092-1.794 2.152 1.845-2.092 1.795-2.152-1.846zm4.207-4.21l2.804 2.405.415-.351-.306-.26-.06.052-2.152-1.846.045-.039-.353-.298z" fill="#FB535A"/><path fill="#FB535A" d="M26.687 15.763l.26.222 2.811-2.38-.278-.238z"/><path fill="#FB535A" d="M24.24 17.861l.243.209 2.812-2.38-.262-.224zm4.908-4.209l.276.236.415-.351-.28-.238z"/><path fill="#7A2A2E" d="M16.972 7.476l-7.229 6.118 7.229 6.117 7.228-6.117z"/><path d="M10.538 13.594l6.434 5.444 6.433-5.444-6.433-5.445-6.434 5.445zm6.434 6.79l-8.024-6.79 8.024-6.79 8.023 6.79-8.023 6.79z" fill="#FFF"/><path d="M12.854 13.594l4.118 3.484 4.117-3.484-4.117-3.485-4.118 3.485zm4.118 3.783L12.5 13.594l4.47-3.784 4.471 3.784-4.47 3.783z" fill="#FFF"/><path fill="#FFF" d="M17.006 12.667l-2.718 2.3 2.718 2.3 2.717-2.3z"/></g><g filter="url(#h)" transform="rotate(-14 84.962 -14.249)"><path fill="#5B532E" d="M1.72 14.673l-1.588-1.37.106.747 1.589 1.37z"/><path fill="#AF9B40" d="M16.86 1.819L15.287.556.132 13.303l1.588 1.37z"/><path fill="#4F4F4F" d="M16.86 1.819l.106.747L1.826 15.42l-.106-.747z"/><path fill="gold" d="M3.15 13.392l-1.585-1.365.075-.086 1.585 1.364zm1.372-1.141l-1.585-1.364.074-.086 1.586 1.364zm1.372-1.14L4.309 9.747l.074-.086 1.586 1.364zm1.372-1.14L5.68 8.607l.075-.086L7.34 9.885zm1.502-1.245L7.173 7.372l.075-.086 1.594 1.353zm1.364-1.15L8.537 6.223l.075-.087 1.594 1.354zm1.364-1.149L9.901 5.074l.075-.087L11.57 6.34zm1.364-1.149l-1.595-1.354.075-.086 1.594 1.353zm1.273-1.122l-1.595-1.353.075-.087 1.594 1.353zm1.364-1.149l-1.595-1.354.075-.087L15.57 2.92z"/><path fill="#5B532E" d="M32.41 14.673l1.59-1.37-.107.747-1.588 1.37z"/><path fill="#AF9B40" d="M17.27 1.819L18.844.556l15.155 12.747-1.589 1.37z"/><path fill="#4F4F4F" d="M17.27 1.819l-.106.747 15.14 12.854.106-.747z"/><path fill="gold" d="M30.98 13.392l-.074-.087 1.585-1.364.075.086zm-1.372-1.141l-.074-.086 1.585-1.364.075.086zm-1.371-1.14l-.075-.086 1.585-1.364.075.086zm-1.372-1.14l-.075-.086 1.586-1.364.074.086zm-1.503-1.245l-.074-.087 1.595-1.353.074.086zm-1.364-1.15l-.074-.086 1.595-1.354.074.087zm-1.364-1.149l-.074-.087 1.595-1.353.074.087zM21.27 5.278l-.074-.087 1.595-1.353.074.086zm-1.273-1.122l-.074-.087 1.595-1.353.074.087zm-1.364-1.149l-.074-.087 1.595-1.354.074.087z"/><path fill="#802428" d="M16.99 13.537v15.982L32.754 16.18v-2.643z"/><path fill="#973135" d="M1.216 13.537v2.643l15.762 13.34V13.536z"/><path fill="#AF3C41" d="M16.991 26.876l15.762-13.34L16.99.199 1.229 13.537z"/><path fill="#7A2A2E" d="M16.991 24.41l12.848-10.873L16.99 2.664 4.143 13.537z"/><path d="M4.496 13.537L16.991 24.11l12.495-10.574L16.99 2.963 4.496 13.537zm12.495 11.172L3.79 13.537l13.2-11.172 13.201 11.172L16.99 24.709z" fill="#FB535A"/><path fill="#5B532E" d="M.338 17.078l14.418 12.295-.12-.736L.219 16.342z"/><path fill="#AF9B40" d="M16.345 27.537l-14.4-12.19-1.726.995 14.417 12.295z"/><path fill="#5B532E" d="M14.636 28.637l.12.736 1.709-1.1-.12-.736z"/><path fill="gold" d="M1.403 18.032l-.126-.772 1.686-1.083.061.096-1.622 1.042.113.699zm1.335 1.102l-.126-.772 1.686-1.082.062.095-1.623 1.042.114.7zm1.352 1.208l-.125-.773 1.685-1.082.062.096-1.622 1.042.113.699zm1.336 1.102l-.126-.772 1.686-1.083.062.096-1.623 1.042.114.699zm1.335 1.103l-.125-.773 1.685-1.082.062.096-1.623 1.041.114.7zm1.336 1.102l-.126-.773 1.686-1.082.061.096-1.622 1.042.113.699zm1.352 1.207l-.126-.772L11.01 23l.062.096-1.623 1.042.114.7zm1.335 1.103l-.125-.773 1.685-1.082.062.096-1.623 1.042.114.698zm1.483 1.296l-.126-.772 1.686-1.083.062.096-1.623 1.042.114.699zm1.335 1.103l-.125-.773 1.685-1.082.062.096-1.622 1.041.113.7z"/><path fill="#5B532E" d="M19.48 28.637l-.12.736 14.418-12.295.12-.736z"/><path fill="#AF9B40" d="M17.77 27.537l14.401-12.19 1.727.995L19.48 28.637z"/><path fill="#5B532E" d="M17.651 28.272l1.71 1.1.12-.735-1.71-1.1z"/><path fill="gold" d="M32.714 18.032l-.113-.018.113-.7-1.622-1.04.062-.097 1.685 1.083zm-1.336 1.102l-.113-.018.114-.699-1.623-1.042.062-.095 1.686 1.082zm-1.352 1.208l-.113-.018.114-.7-1.623-1.041.062-.096 1.685 1.082zm-1.336 1.102l-.112-.018.113-.699-1.622-1.042.061-.096 1.686 1.083zm-1.335 1.103l-.113-.019.114-.699-1.623-1.041.062-.096 1.686 1.082zm-1.335 1.102l-.113-.018.114-.7-1.623-1.041.062-.096 1.685 1.082zm-1.353 1.207l-.113-.018.114-.699-1.623-1.042.062-.096 1.686 1.083zm-1.335 1.103l-.113-.019.114-.698L21.71 24.2l.062-.096 1.685 1.082zm-1.482 1.296l-.114-.018.114-.699-1.622-1.042.061-.096 1.686 1.083zm-1.336 1.103l-.113-.019.114-.699-1.623-1.041.062-.096 1.686 1.082z"/><path fill="#FB535A" d="M4.143 13.537l.22.186.474-.405-.216-.185z"/><path fill="#FB535A" d="M4.286 13.416l.218.187 2.794-2.396-.2-.171z"/><path fill="#FB535A" d="M6.764 11.319l.202.173 2.793-2.396-.183-.157z"/><path fill="#FB535A" d="M9.242 9.222l.185.159 2.793-2.396-.166-.143zm4.942-4.183l.152.13 2.79-2.391-.135-.114z"/><path fill="#FB535A" d="M11.721 7.124l.168.144 2.794-2.396-.15-.128zm4.941-4.182l.136.117.327-.282-.134-.113zM4.143 13.537l.263.222.122-.104L6.68 15.5l-.107.092.353.299.456-.391-2.761-2.368z"/><path d="M4.286 13.416l2.763 2.37 2.794-2.396-2.745-2.354-2.812 2.38zm.612-.078l2.092-1.794 2.152 1.846-2.093 1.794-2.151-1.846z" fill="#FB535A"/><path d="M6.764 11.319l2.747 2.356 2.793-2.396-2.728-2.34-2.812 2.38zm.595-.092L9.45 9.433l2.152 1.846-2.092 1.794-2.152-1.846z" fill="#FB535A"/><path d="M9.242 9.222l2.73 2.342 2.793-2.396-2.711-2.326-2.812 2.38zm.578-.106l2.092-1.794 2.152 1.846-2.092 1.794L9.82 9.116zm-3.221 6.499l.353.298.105-.09 2.152 1.846-.09.078.352.299.44-.377-2.854-2.447z" fill="#FB535A"/><path d="M6.725 15.507l2.853 2.447 2.793-2.396-2.853-2.447-2.793 2.396zm.7 0l2.093-1.794 2.152 1.845-2.092 1.795-2.152-1.846z" fill="#FB535A"/><path d="M9.186 13.396l2.853 2.447 2.794-2.396L11.979 11l-2.793 2.396zm.7 0l2.093-1.794 2.152 1.845-2.092 1.795-2.152-1.846z" fill="#FB535A"/><path d="M11.647 11.285l2.853 2.447 2.794-2.396L14.44 8.89l-2.793 2.396zm.701 0L14.44 9.49l2.152 1.845L14.5 13.13l-2.152-1.846zm-3.204 6.484l.353.299.088-.076 2.152 1.846-.074.063.353.3.423-.363-2.854-2.447z" fill="#FB535A"/><path d="M9.253 17.676l2.853 2.447 2.794-2.396-2.854-2.447-2.793 2.396zm.701 0l2.092-1.795 2.152 1.846-2.092 1.794-2.152-1.845z" fill="#FB535A"/><path d="M11.714 15.564l2.853 2.448 2.794-2.396-2.854-2.447-2.793 2.395zm.701 0l2.092-1.794 2.152 1.846-2.092 1.795-2.152-1.847z" fill="#FB535A"/><path d="M14.175 13.453l2.854 2.448 2.793-2.396-2.853-2.447-2.794 2.395zm.701 0l2.093-1.794 2.152 1.846-2.092 1.794-2.153-1.846zm-3.186 6.47l.352.299.071-.061 2.153 1.846-.057.048.353.3.405-.348-2.854-2.448z" fill="#FB535A"/><path d="M11.781 19.844l2.854 2.447 2.793-2.396-2.854-2.447-2.793 2.396zm.701 0l2.092-1.794 2.153 1.845-2.092 1.795-2.153-1.846z" fill="#FB535A"/><path d="M14.242 17.733l2.854 2.447 2.793-2.395-2.853-2.448-2.794 2.396zm.702 0l2.092-1.794 2.152 1.846-2.092 1.794-2.152-1.846z" fill="#FB535A"/><path d="M16.703 15.622l2.854 2.448 2.793-2.397-2.853-2.447-2.794 2.396zm.702 0l2.092-1.794 2.152 1.845-2.092 1.795-2.152-1.846zM14.184 5.039l2.698 2.314 2.793-2.396-1.884-1.616-.8-.677-2.807 2.375zm.545-.134l2.093-1.794 2.152 1.846-2.092 1.794-2.153-1.846z" fill="#FB535A"/><path d="M11.721 7.124l2.714 2.327 2.793-2.395-2.695-2.312-2.812 2.38zm.562-.12l2.092-1.794 2.152 1.846-2.092 1.794-2.152-1.846zm4.379-4.062l2.68 2.3.346-.296-2.697-2.282z" fill="#FB535A"/><path d="M16.556 7.074L19.41 9.52l2.793-2.396-2.853-2.447-2.794 2.396zm.702 0l2.092-1.795 2.152 1.846L19.41 8.92l-2.152-1.846z" fill="#FB535A"/><path d="M14.11 9.172l2.853 2.448 2.794-2.396-2.854-2.447-2.793 2.395zm.7 0l2.093-1.794 2.152 1.846-2.092 1.795-2.152-1.847zm4.208-4.209L21.87 7.41l.362-.31-.353-.299-.009.008-1.325-1.137L19.36 4.67z" fill="#FB535A"/><path d="M19.085 9.242l2.853 2.448 2.794-2.396-2.854-2.447-2.793 2.395zm.701 0l2.092-1.794 2.152 1.846-2.092 1.794-2.152-1.846z" fill="#FB535A"/><path d="M16.638 11.341l2.853 2.448 2.794-2.396-2.854-2.448-2.793 2.396zm.701 0l2.092-1.794 2.152 1.846-2.092 1.794-2.152-1.846zm4.207-4.21L24.4 9.58l.378-.325-.353-.299-.025.022-2.153-1.846.012-.01-.353-.298z" fill="#FB535A"/><path d="M21.613 11.41l2.854 2.448 2.793-2.396-2.854-2.447-2.793 2.396zm.702 0l2.091-1.793 2.153 1.845-2.092 1.795-2.152-1.846z" fill="#FB535A"/><path d="M19.166 13.51l2.854 2.447 2.793-2.396-2.853-2.447-2.794 2.396zm.702 0l2.092-1.795 2.152 1.846-2.092 1.795-2.152-1.846zm4.206-4.21l2.854 2.447.395-.339-.352-.299-.043.037L24.776 9.3l.028-.024-.353-.299zm-9.823 12.792l.353.298.054-.046 2.153 1.846-.04.034.22.186.392-.331-2.725-2.337z" fill="#FB535A"/><path d="M14.326 22.027l2.722 2.335 2.812-2.38-2.74-2.35-2.794 2.395zm.702 0l2.092-1.794 2.152 1.846-2.092 1.794-2.152-1.846z" fill="#FB535A"/><path d="M16.788 19.916l2.738 2.349 2.812-2.38-2.757-2.365-2.793 2.396zm.7 0l2.093-1.794 2.152 1.846-2.092 1.794-2.152-1.846z" fill="#FB535A"/><path d="M19.249 17.805l2.754 2.363 2.813-2.38-2.774-2.379-2.793 2.396zm.701 0l2.092-1.794 2.152 1.846-2.092 1.794-2.152-1.846zm-3.153 6.441l.194.164.392-.331-.196-.168z" fill="#FB535A"/><path fill="#FB535A" d="M16.855 24.196l.193.166 2.812-2.38-.212-.182z"/><path fill="#FB535A" d="M19.316 22.085l.21.18 2.812-2.38-.229-.196z"/><path fill="#FB535A" d="M21.777 19.974l.227.194 2.811-2.38-.245-.21zm2.381-6.38l2.788 2.391 2.812-2.38-2.806-2.407-2.794 2.396zm.702 0l2.092-1.794 2.152 1.845-2.092 1.795-2.152-1.846z"/><path d="M21.712 15.693l2.77 2.377 2.813-2.38-2.79-2.393-2.793 2.396zm.701 0l2.092-1.794 2.152 1.845-2.092 1.795-2.152-1.846zm4.207-4.21l2.804 2.405.415-.351-.306-.26-.06.052-2.152-1.846.045-.039-.353-.298z" fill="#FB535A"/><path fill="#FB535A" d="M26.687 15.763l.26.222 2.811-2.38-.278-.238z"/><path fill="#FB535A" d="M24.24 17.861l.243.209 2.812-2.38-.262-.224zm4.908-4.209l.276.236.415-.351-.28-.238z"/><path fill="#7A2A2E" d="M16.972 7.476l-7.229 6.118 7.229 6.117 7.228-6.117z"/><path d="M10.538 13.594l6.434 5.444 6.433-5.444-6.433-5.445-6.434 5.445zm6.434 6.79l-8.024-6.79 8.024-6.79 8.023 6.79-8.023 6.79z" fill="#FFF"/><path d="M12.854 13.594l4.118 3.484 4.117-3.484-4.117-3.485-4.118 3.485zm4.118 3.783L12.5 13.594l4.47-3.784 4.471 3.784-4.47 3.783z" fill="#FFF"/><path fill="#FFF" d="M17.006 12.667l-2.718 2.3 2.718 2.3 2.717-2.3z"/></g><g filter="url(#i)" transform="rotate(-14 25.68 -57.48)"><path fill="#5B532E" d="M1.72 14.673l-1.588-1.37.106.747 1.589 1.37z"/><path fill="#AF9B40" d="M16.86 1.819L15.287.556.132 13.303l1.588 1.37z"/><path fill="#4F4F4F" d="M16.86 1.819l.106.747L1.826 15.42l-.106-.747z"/><path fill="gold" d="M3.15 13.392l-1.585-1.365.075-.086 1.585 1.364zm1.372-1.141l-1.585-1.364.074-.086 1.586 1.364zm1.372-1.14L4.309 9.747l.074-.086 1.586 1.364zm1.372-1.14L5.68 8.607l.075-.086L7.34 9.885zm1.502-1.245L7.173 7.372l.075-.086 1.594 1.353zm1.364-1.15L8.537 6.223l.075-.087 1.594 1.354zm1.364-1.149L9.901 5.074l.075-.087L11.57 6.34zm1.364-1.149l-1.595-1.354.075-.086 1.594 1.353zm1.273-1.122l-1.595-1.353.075-.087 1.594 1.353zm1.364-1.149l-1.595-1.354.075-.087L15.57 2.92z"/><path fill="#5B532E" d="M32.41 14.673l1.59-1.37-.107.747-1.588 1.37z"/><path fill="#AF9B40" d="M17.27 1.819L18.844.556l15.155 12.747-1.589 1.37z"/><path fill="#4F4F4F" d="M17.27 1.819l-.106.747 15.14 12.854.106-.747z"/><path fill="gold" d="M30.98 13.392l-.074-.087 1.585-1.364.075.086zm-1.372-1.141l-.074-.086 1.585-1.364.075.086zm-1.371-1.14l-.075-.086 1.585-1.364.075.086zm-1.372-1.14l-.075-.086 1.586-1.364.074.086zm-1.503-1.245l-.074-.087 1.595-1.353.074.086zm-1.364-1.15l-.074-.086 1.595-1.354.074.087zm-1.364-1.149l-.074-.087 1.595-1.353.074.087zM21.27 5.278l-.074-.087 1.595-1.353.074.086zm-1.273-1.122l-.074-.087 1.595-1.353.074.087zm-1.364-1.149l-.074-.087 1.595-1.354.074.087z"/><path fill="#802428" d="M16.99 13.537v15.982L32.754 16.18v-2.643z"/><path fill="#973135" d="M1.216 13.537v2.643l15.762 13.34V13.536z"/><path fill="#AF3C41" d="M16.991 26.876l15.762-13.34L16.99.199 1.229 13.537z"/><path fill="#7A2A2E" d="M16.991 24.41l12.848-10.873L16.99 2.664 4.143 13.537z"/><path d="M4.496 13.537L16.991 24.11l12.495-10.574L16.99 2.963 4.496 13.537zm12.495 11.172L3.79 13.537l13.2-11.172 13.201 11.172L16.99 24.709z" fill="#FB535A"/><path fill="#5B532E" d="M.338 17.078l14.418 12.295-.12-.736L.219 16.342z"/><path fill="#AF9B40" d="M16.345 27.537l-14.4-12.19-1.726.995 14.417 12.295z"/><path fill="#5B532E" d="M14.636 28.637l.12.736 1.709-1.1-.12-.736z"/><path fill="gold" d="M1.403 18.032l-.126-.772 1.686-1.083.061.096-1.622 1.042.113.699zm1.335 1.102l-.126-.772 1.686-1.082.062.095-1.623 1.042.114.7zm1.352 1.208l-.125-.773 1.685-1.082.062.096-1.622 1.042.113.699zm1.336 1.102l-.126-.772 1.686-1.083.062.096-1.623 1.042.114.699zm1.335 1.103l-.125-.773 1.685-1.082.062.096-1.623 1.041.114.7zm1.336 1.102l-.126-.773 1.686-1.082.061.096-1.622 1.042.113.699zm1.352 1.207l-.126-.772L11.01 23l.062.096-1.623 1.042.114.7zm1.335 1.103l-.125-.773 1.685-1.082.062.096-1.623 1.042.114.698zm1.483 1.296l-.126-.772 1.686-1.083.062.096-1.623 1.042.114.699zm1.335 1.103l-.125-.773 1.685-1.082.062.096-1.622 1.041.113.7z"/><path fill="#5B532E" d="M19.48 28.637l-.12.736 14.418-12.295.12-.736z"/><path fill="#AF9B40" d="M17.77 27.537l14.401-12.19 1.727.995L19.48 28.637z"/><path fill="#5B532E" d="M17.651 28.272l1.71 1.1.12-.735-1.71-1.1z"/><path fill="gold" d="M32.714 18.032l-.113-.018.113-.7-1.622-1.04.062-.097 1.685 1.083zm-1.336 1.102l-.113-.018.114-.699-1.623-1.042.062-.095 1.686 1.082zm-1.352 1.208l-.113-.018.114-.7-1.623-1.041.062-.096 1.685 1.082zm-1.336 1.102l-.112-.018.113-.699-1.622-1.042.061-.096 1.686 1.083zm-1.335 1.103l-.113-.019.114-.699-1.623-1.041.062-.096 1.686 1.082zm-1.335 1.102l-.113-.018.114-.7-1.623-1.041.062-.096 1.685 1.082zm-1.353 1.207l-.113-.018.114-.699-1.623-1.042.062-.096 1.686 1.083zm-1.335 1.103l-.113-.019.114-.698L21.71 24.2l.062-.096 1.685 1.082zm-1.482 1.296l-.114-.018.114-.699-1.622-1.042.061-.096 1.686 1.083zm-1.336 1.103l-.113-.019.114-.699-1.623-1.041.062-.096 1.686 1.082z"/><path fill="#FB535A" d="M4.143 13.537l.22.186.474-.405-.216-.185z"/><path fill="#FB535A" d="M4.286 13.416l.218.187 2.794-2.396-.2-.171z"/><path fill="#FB535A" d="M6.764 11.319l.202.173 2.793-2.396-.183-.157z"/><path fill="#FB535A" d="M9.242 9.222l.185.159 2.793-2.396-.166-.143zm4.942-4.183l.152.13 2.79-2.391-.135-.114z"/><path fill="#FB535A" d="M11.721 7.124l.168.144 2.794-2.396-.15-.128zm4.941-4.182l.136.117.327-.282-.134-.113zM4.143 13.537l.263.222.122-.104L6.68 15.5l-.107.092.353.299.456-.391-2.761-2.368z"/><path d="M4.286 13.416l2.763 2.37 2.794-2.396-2.745-2.354-2.812 2.38zm.612-.078l2.092-1.794 2.152 1.846-2.093 1.794-2.151-1.846z" fill="#FB535A"/><path d="M6.764 11.319l2.747 2.356 2.793-2.396-2.728-2.34-2.812 2.38zm.595-.092L9.45 9.433l2.152 1.846-2.092 1.794-2.152-1.846z" fill="#FB535A"/><path d="M9.242 9.222l2.73 2.342 2.793-2.396-2.711-2.326-2.812 2.38zm.578-.106l2.092-1.794 2.152 1.846-2.092 1.794L9.82 9.116zm-3.221 6.499l.353.298.105-.09 2.152 1.846-.09.078.352.299.44-.377-2.854-2.447z" fill="#FB535A"/><path d="M6.725 15.507l2.853 2.447 2.793-2.396-2.853-2.447-2.793 2.396zm.7 0l2.093-1.794 2.152 1.845-2.092 1.795-2.152-1.846z" fill="#FB535A"/><path d="M9.186 13.396l2.853 2.447 2.794-2.396L11.979 11l-2.793 2.396zm.7 0l2.093-1.794 2.152 1.845-2.092 1.795-2.152-1.846z" fill="#FB535A"/><path d="M11.647 11.285l2.853 2.447 2.794-2.396L14.44 8.89l-2.793 2.396zm.701 0L14.44 9.49l2.152 1.845L14.5 13.13l-2.152-1.846zm-3.204 6.484l.353.299.088-.076 2.152 1.846-.074.063.353.3.423-.363-2.854-2.447z" fill="#FB535A"/><path d="M9.253 17.676l2.853 2.447 2.794-2.396-2.854-2.447-2.793 2.396zm.701 0l2.092-1.795 2.152 1.846-2.092 1.794-2.152-1.845z" fill="#FB535A"/><path d="M11.714 15.564l2.853 2.448 2.794-2.396-2.854-2.447-2.793 2.395zm.701 0l2.092-1.794 2.152 1.846-2.092 1.795-2.152-1.847z" fill="#FB535A"/><path d="M14.175 13.453l2.854 2.448 2.793-2.396-2.853-2.447-2.794 2.395zm.701 0l2.093-1.794 2.152 1.846-2.092 1.794-2.153-1.846zm-3.186 6.47l.352.299.071-.061 2.153 1.846-.057.048.353.3.405-.348-2.854-2.448z" fill="#FB535A"/><path d="M11.781 19.844l2.854 2.447 2.793-2.396-2.854-2.447-2.793 2.396zm.701 0l2.092-1.794 2.153 1.845-2.092 1.795-2.153-1.846z" fill="#FB535A"/><path d="M14.242 17.733l2.854 2.447 2.793-2.395-2.853-2.448-2.794 2.396zm.702 0l2.092-1.794 2.152 1.846-2.092 1.794-2.152-1.846z" fill="#FB535A"/><path d="M16.703 15.622l2.854 2.448 2.793-2.397-2.853-2.447-2.794 2.396zm.702 0l2.092-1.794 2.152 1.845-2.092 1.795-2.152-1.846zM14.184 5.039l2.698 2.314 2.793-2.396-1.884-1.616-.8-.677-2.807 2.375zm.545-.134l2.093-1.794 2.152 1.846-2.092 1.794-2.153-1.846z" fill="#FB535A"/><path d="M11.721 7.124l2.714 2.327 2.793-2.395-2.695-2.312-2.812 2.38zm.562-.12l2.092-1.794 2.152 1.846-2.092 1.794-2.152-1.846zm4.379-4.062l2.68 2.3.346-.296-2.697-2.282z" fill="#FB535A"/><path d="M16.556 7.074L19.41 9.52l2.793-2.396-2.853-2.447-2.794 2.396zm.702 0l2.092-1.795 2.152 1.846L19.41 8.92l-2.152-1.846z" fill="#FB535A"/><path d="M14.11 9.172l2.853 2.448 2.794-2.396-2.854-2.447-2.793 2.395zm.7 0l2.093-1.794 2.152 1.846-2.092 1.795-2.152-1.847zm4.208-4.209L21.87 7.41l.362-.31-.353-.299-.009.008-1.325-1.137L19.36 4.67z" fill="#FB535A"/><path d="M19.085 9.242l2.853 2.448 2.794-2.396-2.854-2.447-2.793 2.395zm.701 0l2.092-1.794 2.152 1.846-2.092 1.794-2.152-1.846z" fill="#FB535A"/><path d="M16.638 11.341l2.853 2.448 2.794-2.396-2.854-2.448-2.793 2.396zm.701 0l2.092-1.794 2.152 1.846-2.092 1.794-2.152-1.846zm4.207-4.21L24.4 9.58l.378-.325-.353-.299-.025.022-2.153-1.846.012-.01-.353-.298z" fill="#FB535A"/><path d="M21.613 11.41l2.854 2.448 2.793-2.396-2.854-2.447-2.793 2.396zm.702 0l2.091-1.793 2.153 1.845-2.092 1.795-2.152-1.846z" fill="#FB535A"/><path d="M19.166 13.51l2.854 2.447 2.793-2.396-2.853-2.447-2.794 2.396zm.702 0l2.092-1.795 2.152 1.846-2.092 1.795-2.152-1.846zm4.206-4.21l2.854 2.447.395-.339-.352-.299-.043.037L24.776 9.3l.028-.024-.353-.299zm-9.823 12.792l.353.298.054-.046 2.153 1.846-.04.034.22.186.392-.331-2.725-2.337z" fill="#FB535A"/><path d="M14.326 22.027l2.722 2.335 2.812-2.38-2.74-2.35-2.794 2.395zm.702 0l2.092-1.794 2.152 1.846-2.092 1.794-2.152-1.846z" fill="#FB535A"/><path d="M16.788 19.916l2.738 2.349 2.812-2.38-2.757-2.365-2.793 2.396zm.7 0l2.093-1.794 2.152 1.846-2.092 1.794-2.152-1.846z" fill="#FB535A"/><path d="M19.249 17.805l2.754 2.363 2.813-2.38-2.774-2.379-2.793 2.396zm.701 0l2.092-1.794 2.152 1.846-2.092 1.794-2.152-1.846zm-3.153 6.441l.194.164.392-.331-.196-.168z" fill="#FB535A"/><path fill="#FB535A" d="M16.855 24.196l.193.166 2.812-2.38-.212-.182z"/><path fill="#FB535A" d="M19.316 22.085l.21.18 2.812-2.38-.229-.196z"/><path fill="#FB535A" d="M21.777 19.974l.227.194 2.811-2.38-.245-.21zm2.381-6.38l2.788 2.391 2.812-2.38-2.806-2.407-2.794 2.396zm.702 0l2.092-1.794 2.152 1.845-2.092 1.795-2.152-1.846z"/><path d="M21.712 15.693l2.77 2.377 2.813-2.38-2.79-2.393-2.793 2.396zm.701 0l2.092-1.794 2.152 1.845-2.092 1.795-2.152-1.846zm4.207-4.21l2.804 2.405.415-.351-.306-.26-.06.052-2.152-1.846.045-.039-.353-.298z" fill="#FB535A"/><path fill="#FB535A" d="M26.687 15.763l.26.222 2.811-2.38-.278-.238z"/><path fill="#FB535A" d="M24.24 17.861l.243.209 2.812-2.38-.262-.224zm4.908-4.209l.276.236.415-.351-.28-.238z"/><path fill="#7A2A2E" d="M16.972 7.476l-7.229 6.118 7.229 6.117 7.228-6.117z"/><path d="M10.538 13.594l6.434 5.444 6.433-5.444-6.433-5.445-6.434 5.445zm6.434 6.79l-8.024-6.79 8.024-6.79 8.023 6.79-8.023 6.79z" fill="#FFF"/><path d="M12.854 13.594l4.118 3.484 4.117-3.484-4.117-3.485-4.118 3.485zm4.118 3.783L12.5 13.594l4.47-3.784 4.471 3.784-4.47 3.783z" fill="#FFF"/><path fill="#FFF" d="M17.006 12.667l-2.718 2.3 2.718 2.3 2.717-2.3z"/></g></g></svg>