<svg id="Layer_1" xmlns="http://www.w3.org/2000/svg" viewBox="0 0 128 128"><style>.st0{fill:#fff}</style><path class="st0" d="M75.44 106.96l.45-.22.67-.22c5.08-2.69 8.89-6.13 11.43-10.31l3.36-7.4 1.12-7.85-.22-3.14c0-.9-.45-1.27-1.34-1.12l-5.16.9c-.45 0-.67.15-.67.45l-.22.67c.3 3.44-.07 6.58-1.12 9.42l-3.81 6.73-7.4 5.38-.45.45-.22.45 2.02 5.16c.29.88.82 1.1 1.56.65zm2.47-43.04l2.91-3.81.67-1.34-.9-.9-7.85-3.81-7.62-1.57-7.4.9c-2.54.45-4.63 1.2-6.28 2.24l-4.48 2.69-.22.45v.67l3.59 4.48c.45.45.9.45 1.34 0l.45-.22.22-.22 4.93-2.47 5.38-.9c5.23-.3 9.79.97 13.67 3.81.62.45 1.14.45 1.59 0zM42.94 78.04l-.22-.45-5.38-.9-1.12.22-.45 1.12-.22 1.57c0 5.53 1.27 10.69 3.81 15.47 3.14 5.38 7.62 9.34 13.45 11.88h.67l.45-.45 2.24-5.38v-.45l-.45-.45-.9-.45c-4.04-1.94-7.02-4.78-8.97-8.52-1.49-2.69-2.39-5.23-2.69-7.62V78.7l-.22-.66z"/><path class="st0" d="M20.75 111.89c-.6-.6-1.12-.6-1.57 0l2.47 2.91 3.14 2.69 8.29 4.48 6.73 1.79 6.5.22 6.28-1.12c3.44-.9 6.65-2.47 9.64-4.71l2.02-.9 1.79.9c4.48 3.44 9.86 5.38 16.14 5.83l6.95-.45 6.73-1.79c3.14-1.2 6.05-2.91 8.74-5.16l4.48-4.48-.9-.67-.9.45-5.83 4.48-7.17 2.24c-6.43.75-12.11-.9-17.04-4.93-4.18-3.59-6.73-8-7.62-13.23-.75-4.78-.15-9.12 1.79-13l.22-.67-.45-.67-.67-.22-.9-.45H68.5c-1.34 1.2-2.84 1.79-4.48 1.79-1.64 0-3.06-.6-4.26-1.79l-.67-.22-1.57.67-1.12.67c1.35 2.99 2.09 5.9 2.24 8.74.3 5.98-1.34 11.06-4.93 15.24-4.48 5.38-10.16 8.14-17.04 8.29l-7.62-1.34c-3.45-1.33-6.21-3.19-8.3-5.59zm-6.5-8.74l.67 1.35.67-.67v-.9l-.67-2.91v-6.05l1.57-5.83c1.79-4.18 4.48-7.47 8.07-9.86 3.14-1.94 6.58-3.14 10.31-3.59l11.21 2.02c3.74 1.79 6.5 4.04 8.29 6.73l.45.67.67.67 1.79-1.12.67-.67v-.9c-.3-1.64-.07-3.14.67-4.48.9-1.34 2.09-2.24 3.59-2.69l.45-.22.22-.45v-1.12l-.22-1.57-1.34-.22c-2.84-.3-5.75-1.34-8.74-3.14-2.84-1.64-5.16-3.81-6.95-6.5-2.09-3.29-3.29-6.58-3.59-9.86v-3.81l.67-4.03c.75-3.14 2.09-5.9 4.04-8.29 3.44-4.18 7.62-6.8 12.55-7.85l.22-.22.22-.45-.45-.22h-2.02c-4.48 1.2-8.37 2.99-11.66 5.38-5.23 3.74-8.89 8.52-10.98 14.35-1.63 4-2.38 8.18-2.23 12.51l.45 2.69-.22.9-.45.45-8.97 5.6c-5.83 5.08-9.34 11.66-10.54 19.73-.6 4.33-.22 8.67 1.12 13l.46 1.57zM95.4 62.8l.22-3.81c.15-4.18-.52-8.29-2.02-12.33l-5.16-8.74c-3.59-4.33-7.7-7.4-12.33-9.19l-6.95-1.79h-.45l-.45.45.45.22.45.45c3.14.6 5.9 1.87 8.29 3.81 5.68 4.63 8.52 10.31 8.52 17.04l-.67 6.73c-.75 2.54-2.09 5.08-4.03 7.62-2.84 3.59-6.58 6.05-11.21 7.4l-4.04.67-.67.45-.22.45.45 2.69h.22c1.34.45 2.47 1.2 3.36 2.24.9 1.05 1.27 2.24 1.12 3.59l.22 2.47 2.02 1.34.45.22.45-.67c1.34-2.09 2.91-3.81 4.71-5.16 2.99-2.09 6.05-3.36 9.19-3.81l11.43.9c4.48 1.64 8.07 4.41 10.76 8.29 2.54 3.59 3.81 7.4 3.81 11.43v3.81l-.9 3.59.45 1.35h.45l1.57-5.16.67-6.5c.15-3.29-.3-6.58-1.34-9.86-1.34-4.03-3.29-7.55-5.83-10.54-3.44-4.03-7.4-7.02-11.88-8.97-.59-.16-.96-.38-1.11-.68z"/></svg>