<svg width="87" height="29" viewBox="0 0 87 29" xmlns="http://www.w3.org/2000/svg" xmlns:xlink="http://www.w3.org/1999/xlink"><title>gm-bar-04</title><defs><linearGradient x1="50%" y1="5.469%" x2="50%" y2="100.001%" id="c"><stop stop-color="#BD1B3D" offset="0%"/><stop stop-color="#6F1323" offset="100%"/></linearGradient><path d="M2 3h83a2 2 0 0 1 2 2v10a2 2 0 0 1-2 2H2a2 2 0 0 1-2-2V5a2 2 0 0 1 2-2z" id="b"/><filter x="-1.1%" y="-7.1%" width="102.3%" height="128.6%" filterUnits="objectBoundingBox" id="a"><feOffset dy="2" in="SourceAlpha" result="shadowOffsetOuter1"/><feColorMatrix values="0 0 0 0 0 0 0 0 0 0 0 0 0 0 0 0 0 0 0.3 0" in="shadowOffsetOuter1"/></filter><linearGradient x1="50%" y1="5.469%" x2="50%" y2="100.001%" id="f"><stop stop-color="#DA244B" offset="0%"/><stop stop-color="#901E32" offset="100%"/></linearGradient><rect id="e" x="4" y="7" width="79" height="14" rx="2"/><filter x="-1.3%" y="-7.1%" width="102.5%" height="128.6%" filterUnits="objectBoundingBox" id="d"><feOffset dy="2" in="SourceAlpha" result="shadowOffsetOuter1"/><feColorMatrix values="0 0 0 0 0 0 0 0 0 0 0 0 0 0 0 0 0 0 0.3 0" in="shadowOffsetOuter1"/></filter><linearGradient x1="4.972%" y1="0%" x2="4.972%" y2="93.861%" id="i"><stop stop-color="#F4E02E" offset="0%"/><stop stop-color="#F4E68A" offset="43.052%"/><stop stop-color="#D8BE3C" offset="72.598%"/><stop stop-color="#A98D14" offset="100%"/></linearGradient><path id="h" d="M18.778 20.706L14.11 23l.778-4.588L11 15.352l5.444-.764L18 10l2.333 4.588 5.445.765-3.89 3.059.779 4.588z"/><filter x="-7.1%" y="-7.7%" width="119.8%" height="130.8%" filterUnits="objectBoundingBox" id="g"><feOffset dy="2" in="SourceAlpha" result="shadowOffsetOuter1"/><feColorMatrix values="0 0 0 0 0 0 0 0 0 0 0 0 0 0 0 0 0 0 0.3 0" in="shadowOffsetOuter1"/></filter><path id="k" d="M54.778 20.706L50.11 23l.778-4.588L47 15.352l5.444-.764L54 10l2.333 4.588 5.445.765-3.89 3.059.779 4.588z"/><filter x="-7.1%" y="-7.7%" width="119.8%" height="130.8%" filterUnits="objectBoundingBox" id="j"><feOffset dy="2" in="SourceAlpha" result="shadowOffsetOuter1"/><feColorMatrix values="0 0 0 0 0 0 0 0 0 0 0 0 0 0 0 0 0 0 0.3 0" in="shadowOffsetOuter1"/></filter><path id="m" d="M37 24l-6 3 1-6-5-4 7-1 2-6 3 6 7 1-5 4 1 6z"/><filter x="-5.6%" y="-5.9%" width="116.7%" height="123.5%" filterUnits="objectBoundingBox" id="l"><feOffset dy="2" in="SourceAlpha" result="shadowOffsetOuter1"/><feColorMatrix values="0 0 0 0 0 0 0 0 0 0 0 0 0 0 0 0 0 0 0.3 0" in="shadowOffsetOuter1"/></filter><linearGradient x1="4.972%" y1="0%" x2="4.972%" y2="93.861%" id="p"><stop stop-color="#F4E02E" offset="0%"/><stop stop-color="#A98D14" offset="100%"/></linearGradient><path d="M2.202 0h66.596a2 2 0 0 1 1.484 3.34l-4.516 5a2 2 0 0 1-1.484.66H6.718a2 2 0 0 1-1.484-.66l-4.516-5A2 2 0 0 1 2.202 0z" id="o"/><filter x="-1.1%" y="-11.1%" width="102.2%" height="144.4%" filterUnits="objectBoundingBox" id="n"><feOffset dy="2" in="SourceAlpha" result="shadowOffsetOuter1"/><feColorMatrix values="0 0 0 0 0 0 0 0 0 0 0 0 0 0 0 0 0 0 0.3 0" in="shadowOffsetOuter1"/></filter></defs><g fill="none" fill-rule="evenodd"><use fill="#000" filter="url(#a)" xlink:href="#b"/><use fill="url(#c)" xlink:href="#b"/><use fill="#000" filter="url(#d)" xlink:href="#e"/><use fill="url(#f)" xlink:href="#e"/><g transform="translate(8)"><use fill="#000" filter="url(#g)" xlink:href="#h"/><use fill="url(#i)" xlink:href="#h"/></g><g transform="translate(8)"><use fill="#000" filter="url(#j)" xlink:href="#k"/><use fill="url(#i)" xlink:href="#k"/></g><g transform="translate(8)"><use fill="#000" filter="url(#l)" xlink:href="#m"/><use fill="url(#i)" xlink:href="#m"/></g><g transform="translate(8)"><use fill="#000" filter="url(#n)" xlink:href="#o"/><use fill="url(#p)" xlink:href="#o"/></g></g></svg>