<svg xmlns="http://www.w3.org/2000/svg" viewBox="0 0 205.57 310"><defs><style>.a{fill:#93d5e5}.b{fill:#a8dee9}.c{fill:#010101}.d{fill:#fff}</style></defs><title>ANGEL</title><path class="a" d="M80.75 224.48s-37.53-47.9-67.12 46.07 66.2-7 66.2-7zm44.05 0s37.53-47.9 67.12 46.07-66.2-7-66.2-7z"/><path class="b" d="M122.64 222.2s12.55-49.69 67.41 12.57S136.67 252 136.67 252zm-39.72 0s-12.55-49.69-67.41 12.57S68.89 252 68.89 252z"/><path class="c" d="M97.12 251.59L77.8 264.88a10 10 0 0 0 5.67 18.24h38.63a10 10 0 0 0 5.67-18.24l-19.31-13.28a10 10 0 0 0-11.34-.01z"/><path class="d" d="M92.13 148.06l-52.69 98.1A12.1 12.1 0 0 0 50.09 264h105.38a12.1 12.1 0 0 0 10.66-17.82l-52.69-98.1a12.1 12.1 0 0 0-21.31-.02z"/><path class="c" d="M98.5 192.12l-21.16 39.41a4.86 4.86 0 0 0 4.28 7.16h42.33a4.86 4.86 0 0 0 4.28-7.16l-21.17-39.41a4.86 4.86 0 0 0-8.56 0z"/></svg>