<svg id="Layer_1" xmlns="http://www.w3.org/2000/svg" viewBox="0 0 40.4 36"><style>.st0{fill:none;stroke:#fff;stroke-miterlimit:10}.st1{fill:#fff}</style><path class="st0" d="M20.7 14.5l-1.4-9m-.2-1.3L18.6 1m4.8 32l-.3-1.7M23 30l-1.1-6.9m-5-3.1L3.5 21.5m35.6-5.3l-2.4.3m-2 .3l-9.1 1.4M17.7 16l-4.2-4.2m16.4 16.5l-1.3-1.4m-1-1l-3.1-3.1m-7.1.4L10 30.6m19.4-19.4L24.5 16"/><path class="st1" d="M36.5 27.7l.4 2.9 2.7 1.2-2.6 1.3-.3 2.9-2.1-2-2.8.5 1.2-2.6-1.4-2.5 2.9.4zm-.6-26.3l1.2 3.3 3.3.9-2.7 2.2.1 3.5-2.8-2-3.3 1.2 1-3.3-2.2-2.8H34zM5.2 0L8 3.5l4.4-.3L10 6.9l1.6 4.1-4.3-1.2-3.4 2.8-.2-4.4L0 5.8l4.2-1.5z"/></svg>