<svg width="79" height="21" viewBox="0 0 79 21" xmlns="http://www.w3.org/2000/svg" xmlns:xlink="http://www.w3.org/1999/xlink"><title>bronze-bar-05</title><defs><linearGradient x1="50%" y1="0%" x2="50%" y2="84.591%" id="c"><stop stop-color="#BC7D3F" offset="0%"/><stop stop-color="#79522D" offset="100%"/></linearGradient><rect id="b" width="79" height="14" rx="2"/><filter x="-1.3%" y="-7.1%" width="102.5%" height="128.6%" filterUnits="objectBoundingBox" id="a"><feOffset dy="2" in="SourceAlpha" result="shadowOffsetOuter1"/><feColorMatrix values="0 0 0 0 0 0 0 0 0 0 0 0 0 0 0 0 0 0 0.3 0" in="shadowOffsetOuter1"/></filter><linearGradient x1="50%" y1="100%" x2="50%" y2="-.001%" id="f"><stop stop-color="#95602D" offset="0%"/><stop stop-color="#F3A961" offset="100%"/></linearGradient><path id="e" d="M7.778 10.706L3.11 13l.778-4.588L0 5.352l5.444-.764L7 0l2.333 4.588 5.445.765-3.89 3.059.779 4.588z"/><filter x="-7.1%" y="-7.7%" width="119.8%" height="130.8%" filterUnits="objectBoundingBox" id="d"><feOffset dy="2" in="SourceAlpha" result="shadowOffsetOuter1"/><feColorMatrix values="0 0 0 0 0 0 0 0 0 0 0 0 0 0 0 0 0 0 0.3 0" in="shadowOffsetOuter1"/></filter><path id="h" d="M20.778 13.706L16.11 16l.778-4.588L13 8.352l5.444-.764L20 3l2.333 4.588 5.445.765-3.89 3.059.779 4.588z"/><filter x="-7.1%" y="-7.7%" width="119.8%" height="130.8%" filterUnits="objectBoundingBox" id="g"><feOffset dy="2" in="SourceAlpha" result="shadowOffsetOuter1"/><feColorMatrix values="0 0 0 0 0 0 0 0 0 0 0 0 0 0 0 0 0 0 0.3 0" in="shadowOffsetOuter1"/></filter><path id="j" d="M49.778 10.706L45.11 13l.778-4.588L42 5.352l5.444-.764L49 0l2.333 4.588 5.445.765-3.89 3.059.779 4.588z"/><filter x="-7.1%" y="-7.7%" width="119.8%" height="130.8%" filterUnits="objectBoundingBox" id="i"><feOffset dy="2" in="SourceAlpha" result="shadowOffsetOuter1"/><feColorMatrix values="0 0 0 0 0 0 0 0 0 0 0 0 0 0 0 0 0 0 0.3 0" in="shadowOffsetOuter1"/></filter><path id="l" d="M36.778 13.706L32.11 16l.778-4.588L29 8.352l5.444-.764L36 3l2.333 4.588 5.445.765-3.89 3.059.779 4.588z"/><filter x="-7.1%" y="-7.7%" width="119.8%" height="130.8%" filterUnits="objectBoundingBox" id="k"><feOffset dy="2" in="SourceAlpha" result="shadowOffsetOuter1"/><feColorMatrix values="0 0 0 0 0 0 0 0 0 0 0 0 0 0 0 0 0 0 0.3 0" in="shadowOffsetOuter1"/></filter></defs><g fill="none" fill-rule="evenodd"><use fill="#000" filter="url(#a)" xlink:href="#b"/><use fill="url(#c)" xlink:href="#b"/><g transform="translate(12 3)"><use fill="#000" filter="url(#d)" xlink:href="#e"/><use fill="url(#f)" xlink:href="#e"/></g><g transform="translate(12 3)"><use fill="#000" filter="url(#g)" xlink:href="#h"/><use fill="url(#f)" xlink:href="#h"/></g><g transform="translate(12 3)"><use fill="#000" filter="url(#i)" xlink:href="#j"/><use fill="url(#f)" xlink:href="#j"/></g><g transform="translate(12 3)"><use fill="#000" filter="url(#k)" xlink:href="#l"/><use fill="url(#f)" xlink:href="#l"/></g></g></svg>