<svg width="87" height="25" viewBox="0 0 87 25" xmlns="http://www.w3.org/2000/svg" xmlns:xlink="http://www.w3.org/1999/xlink"><title>master-bar-06</title><defs><linearGradient x1="50%" y1="5.469%" x2="50%" y2="100.001%" id="c"><stop stop-color="#973D7C" offset="0%"/><stop stop-color="#6B2755" offset="100%"/></linearGradient><path d="M2 0h83a2 2 0 0 1 2 2v10a2 2 0 0 1-2 2H2a2 2 0 0 1-2-2V2a2 2 0 0 1 2-2z" id="b"/><filter x="-1.1%" y="-7.1%" width="102.3%" height="128.6%" filterUnits="objectBoundingBox" id="a"><feOffset dy="2" in="SourceAlpha" result="shadowOffsetOuter1"/><feColorMatrix values="0 0 0 0 0 0 0 0 0 0 0 0 0 0 0 0 0 0 0.3 0" in="shadowOffsetOuter1"/></filter><linearGradient x1="50%" y1="5.469%" x2="50%" y2="100.001%" id="f"><stop stop-color="#B55197" offset="0%"/><stop stop-color="#85346B" offset="100%"/></linearGradient><rect id="e" x="4" y="4" width="79" height="14" rx="2"/><filter x="-1.3%" y="-7.1%" width="102.5%" height="128.6%" filterUnits="objectBoundingBox" id="d"><feOffset dy="2" in="SourceAlpha" result="shadowOffsetOuter1"/><feColorMatrix values="0 0 0 0 0 0 0 0 0 0 0 0 0 0 0 0 0 0 0.3 0" in="shadowOffsetOuter1"/></filter><linearGradient x1="4.972%" y1="0%" x2="4.972%" y2="93.861%" id="i"><stop stop-color="#F4E02E" offset="0%"/><stop stop-color="#F4E68A" offset="43.052%"/><stop stop-color="#D8BE3C" offset="72.598%"/><stop stop-color="#A98D14" offset="100%"/></linearGradient><path id="h" d="M13.778 16.706L9.11 19l.778-4.588L6 11.352l5.444-.764L13 6l2.333 4.588 5.445.765-3.89 3.059.779 4.588z"/><filter x="-7.1%" y="-7.7%" width="119.8%" height="130.8%" filterUnits="objectBoundingBox" id="g"><feOffset dy="2" in="SourceAlpha" result="shadowOffsetOuter1"/><feColorMatrix values="0 0 0 0 0 0 0 0 0 0 0 0 0 0 0 0 0 0 0.3 0" in="shadowOffsetOuter1"/></filter><path id="k" d="M26.778 19.706L22.11 22l.778-4.588L19 14.352l5.444-.764L26 9l2.333 4.588 5.445.765-3.89 3.059.779 4.588z"/><filter x="-7.1%" y="-7.7%" width="119.8%" height="130.8%" filterUnits="objectBoundingBox" id="j"><feOffset dy="2" in="SourceAlpha" result="shadowOffsetOuter1"/><feColorMatrix values="0 0 0 0 0 0 0 0 0 0 0 0 0 0 0 0 0 0 0.3 0" in="shadowOffsetOuter1"/></filter><path id="m" d="M72.778 16.706L68.11 19l.778-4.588L65 11.352l5.444-.764L72 6l2.333 4.588 5.445.765-3.89 3.059.779 4.588z"/><filter x="-7.1%" y="-7.7%" width="119.8%" height="130.8%" filterUnits="objectBoundingBox" id="l"><feOffset dy="2" in="SourceAlpha" result="shadowOffsetOuter1"/><feColorMatrix values="0 0 0 0 0 0 0 0 0 0 0 0 0 0 0 0 0 0 0.3 0" in="shadowOffsetOuter1"/></filter><path id="o" d="M59.778 19.706L55.11 22l.778-4.588L52 14.352l5.444-.764L59 9l2.333 4.588 5.445.765-3.89 3.059.779 4.588z"/><filter x="-7.1%" y="-7.7%" width="119.8%" height="130.8%" filterUnits="objectBoundingBox" id="n"><feOffset dy="2" in="SourceAlpha" result="shadowOffsetOuter1"/><feColorMatrix values="0 0 0 0 0 0 0 0 0 0 0 0 0 0 0 0 0 0 0.3 0" in="shadowOffsetOuter1"/></filter><path id="q" d="M43 20.096L37.438 23l1.062-6.15-4.5-4.357 6.219-.897L43 6l2.781 5.596 6.219.897-4.5 4.356L48.562 23z"/><filter x="-5.6%" y="-5.9%" width="111.1%" height="123.5%" filterUnits="objectBoundingBox" id="p"><feOffset dy="2" in="SourceAlpha" result="shadowOffsetOuter1"/><feColorMatrix values="0 0 0 0 0 0 0 0 0 0 0 0 0 0 0 0 0 0 0.3 0" in="shadowOffsetOuter1"/></filter></defs><g fill="none" fill-rule="evenodd"><use fill="#000" filter="url(#a)" xlink:href="#b"/><use fill="url(#c)" xlink:href="#b"/><use fill="#000" filter="url(#d)" xlink:href="#e"/><use fill="url(#f)" xlink:href="#e"/><use fill="#000" filter="url(#g)" xlink:href="#h"/><use fill="url(#i)" xlink:href="#h"/><use fill="#000" filter="url(#j)" xlink:href="#k"/><use fill="url(#i)" xlink:href="#k"/><use fill="#000" filter="url(#l)" xlink:href="#m"/><use fill="url(#i)" xlink:href="#m"/><use fill="#000" filter="url(#n)" xlink:href="#o"/><use fill="url(#i)" xlink:href="#o"/><use fill="#000" filter="url(#p)" xlink:href="#q"/><use fill="url(#i)" xlink:href="#q"/></g></svg>