<svg width="99" height="111" viewBox="0 0 99 111" xmlns="http://www.w3.org/2000/svg"><title>power-defense-locked</title><defs><linearGradient x1="0%" y1="0%" x2="97.74%" y2="97.74%" id="a"><stop stop-color="#A6A6A6" offset="0%"/><stop stop-color="#4F4F4F" offset="100%"/></linearGradient></defs><g fill="none" fill-rule="evenodd"><path d="M22.085 4v6.114h19.8V4h47.253L99 12.804V106a5 5 0 0 1-5 5H5a5 5 0 0 1-5-5V14C0 8.477 4.477 4 10 4h12.085z" fill="#4B4B4B"/><path d="M22.085 0v6.114h19.8V0h47.253L99 8.804V102a5 5 0 0 1-5 5H5a5 5 0 0 1-5-5V10C0 4.477 4.477 0 10 0h12.085z" fill="url(#a)"/><path fill="#FFF" d="M24.369 3.057H39.6v3.057H24.369z"/></g></svg>