<svg id="Layer_1" xmlns="http://www.w3.org/2000/svg" viewBox="0 0 205 310"><style>.st0{fill:#010101}.st1{fill:#19b35e}.st2{fill:#fff}.st3{fill:#f58024}.st4{fill:#ed2045}.st5{fill:#b3598d}.st6{fill:#cbdb29}.st7{fill:#02b7bf}.st8{fill:#358540}.st9{fill:#f3ea1d}.st10{fill:#f05a73}.st11{fill:#b83f59}.st12{fill:#f7a3a5}.st13{fill:#828182}.st14{fill:#bbb}.st15{fill:#cfd928}.st16{fill:#e1363e}.st17{fill:#148a44}.st18{fill:#da1f26}.st19{fill:#fce644}.st20{fill:#a05f8c}.st21{fill:#bd6229}.st22{fill:#8d431f}.st23{fill:#e87fb3}.st24{fill:#499049}.st25{fill:#56a656}.st26{fill:#6fc171}.st27{fill:#f68c33}.st28{clip-path:url(#SVGID_2_);fill:#b16327}.st29{fill:#139f57}.st30{fill:#117940}.st31{fill:#3cb76b}.st32{fill:#149b53}.st33{fill:#f68a20}.st34{fill:#3bb05d}.st35{fill:#07b4c0}.st36{fill:#f3935f}.st37{fill:#eb83ac}.st38{fill:#f2e36d}.st39{fill:#93d1d6}.st40{fill:#f9a970}.st41{fill:#b56a43}.st42{fill:#92d5e5}.st43{fill:#f1d351}.st44{fill:#b79f36}.st45{fill:#fef6ab}.st46{fill:#ba7c38}</style><path class="st4" d="M91.1 133.3L1.5 205.2c-3.2 4-.8 10.6 3.9 10.6h89.2c4.7 0 7.1-6.6 3.9-10.6l.4-71.9c-2.1-2.7-5.7-2.7-7.8 0zm22.8 0l89.6 71.9c3.2 4 .8 10.6-3.9 10.6h-89.2c-4.7 0-7.1-6.6-3.9-10.6l-.4-71.9c2.1-2.7 5.7-2.7 7.8 0z"/><path class="st0" d="M96.8 252.8l-19.3 13.3c-8.1 5.6-4.2 18.2 5.7 18.2h38.6c9.8 0 13.8-12.7 5.7-18.2l-19.3-13.3c-3.4-2.4-8-2.4-11.4 0z"/><path class="st2" d="M85.5 141.3l-33.3 99c-4.1 11.7 4.6 24 17 24h66.6c12.4 0 21.1-12.3 17-24l-33.3-99c-5.6-16.1-28.4-16.1-34 0z"/><path class="st0" d="M98.8 190.9l-18.3 42.8c-1.5 3.5.5 7.8 3.7 7.8h36.5c3.2 0 5.2-4.3 3.7-7.8l-18.3-42.8c-1.5-3.7-5.7-3.7-7.3 0z"/></svg>