<svg id="Layer_1" xmlns="http://www.w3.org/2000/svg" viewBox="0 0 215 310"><style>.st0{fill:#010101}.st1{fill:#19b35e}.st2{fill:#fff}.st3{fill:#f58024}.st4{fill:#ed2045}.st5{fill:#b3598d}.st6{fill:#cbdb29}.st7{fill:#02b7bf}.st8{fill:#358540}.st9{fill:#f3ea1d}.st10{fill:#f05a73}.st11{fill:#b83f59}.st12{fill:#f7a3a5}.st13{fill:#828182}.st14{fill:#bbb}.st15{fill:#cfd928}.st16{fill:#e1363e}.st17{fill:#148a44}.st18{fill:#da1f26}.st19{fill:#fce644}.st20{fill:#469fd8}.st21{fill:#bd6229}.st22{fill:#8d431f}.st23{fill:#e87fb3}.st24{fill:#499049}.st25{fill:#56a656}.st26{fill:#6fc171}.st27{fill:#f68c33}.st28{clip-path:url(#SVGID_2_);fill:#b16327}.st29{fill:#139f57}.st30{fill:#117940}.st31{fill:#3cb76b}.st32{fill:#149b53}.st33{fill:#f68a20}.st34{fill:#3bb05d}.st35{fill:#07b4c0}.st36{fill:#f3935f}.st37{fill:#eb83ac}.st38{fill:#f2e36d}.st39{fill:#93d1d6}.st40{fill:#f9a970}.st41{fill:#b56a43}.st42{fill:#92d5e5}.st43{fill:#f1d351}.st44{fill:#b79f36}.st45{fill:#fef6ab}.st46{fill:#ba7c38}.st47{fill:#d82a27}.st48{fill:none;stroke:#010101;stroke-width:6;stroke-miterlimit:10}</style><path class="st47" d="M125.5 250.4s20.6-6.7 26.5 25.9c0 0 10.9 16 61.5 26.8 0 0-12.1-39 .7-53.9 0 0-30.5-8-31.4-42.3 0 0-30.7 11.9-47.4-22.1l-9.9 65.6z"/><path class="st48" d="M125.7 249.6s20.6-6.7 26.5 25.9c0 0 10.9 16 61.5 26.8"/><path class="st47" d="M89.1 250.4s-20.6-6.7-26.5 25.9c0 0-10.9 16-61.5 26.8 0 0 12.1-39-.7-53.9 0 0 30.5-8 31.4-42.3 0 0 30.7 11.9 47.4-22.1l9.9 65.6z"/><path class="st48" d="M88.9 249.6s-20.6-6.7-26.5 25.9c0 0-10.9 16-61.5 26.8"/><path class="st0" d="M100.8 252.2l-19.3 13.3c-8.1 5.6-4.2 18.2 5.7 18.2h38.6c9.8 0 13.8-12.7 5.7-18.2l-19.3-13.3c-3.5-2.3-8-2.3-11.4 0z"/><path class="st2" d="M97.9 261l-33.8-14.6c-6.9-3.8-10.5-11.7-9-19.4l23.5-65.9c1.7-8.4 9.1-14.4 17.6-14.4H115c8.4 0 15.7 5.8 17.6 14l25 66.1c1.8 7.8-1.8 15.9-8.9 19.8L115.2 261c-5.4 3-11.9 3-17.3 0z"/><path class="st0" d="M103.4 239l-22.1-14.6c-1.5-1.3-2-3.5-1.3-5.4l9-22.7c.7-1.8 2.5-3 4.4-3h25.4c1.9 0 3.6 1.1 4.3 2.8l9.8 22.8c.8 1.8.4 3.9-.9 5.3-.2.2-.4.3-.6.5L109.6 239c-1.8 1.6-4.4 1.6-6.2 0z"/></svg>