<svg width="116" height="114" viewBox="0 0 116 114" xmlns="http://www.w3.org/2000/svg"><title>bg-crate</title><defs><linearGradient x1="50%" y1="138.391%" x2="50%" y2="0%" id="a"><stop stop-color="#F5F5F5" offset="0%"/><stop stop-color="#FFF" offset="100%"/></linearGradient><linearGradient x1="50%" y1="138.391%" x2="50%" y2="0%" id="b"><stop stop-color="#F5F5F5" offset="0%"/><stop stop-color="#FFF" offset="100%"/></linearGradient></defs><g fill="none" fill-rule="evenodd"><g fill="#FFF"><path d="M0 52.69h115.126V14.192H0z"/><path d="M14.765 52.69h86v-48h-86zM0 98.108h115.126V59.972H0z"/><path d="M21.765 107.972h72v-48h-72z"/></g><path fill="url(#a)" d="M0 98l5.112 16h18.937L38 98z"/><path fill="url(#b)" d="M4.877 0L0 16h36L24.3 0z"/><path fill="url(#a)" transform="matrix(-1 0 0 1 194 0)" d="M78 98l5.112 16h18.937L116 98z"/><path fill="url(#b)" transform="matrix(-1 0 0 1 194 0)" d="M83.877 0L79 16h36L103.3 0z"/></g></svg>