<svg id="Layer_1" data-name="Layer 1" xmlns="http://www.w3.org/2000/svg" viewBox="0 0 205 310"><defs><style>.cls-1{fill:#4c67d4}.cls-2{fill:#010101}.cls-3{fill:#fff}</style></defs><title>DARK_BLUE</title><path class="cls-1" d="M91.1 133.3L1.5 205.2c-3.2 4-.8 10.6 3.9 10.6h89.2c4.7 0 7.1-6.6 3.9-10.6l.4-71.9a4.77 4.77 0 0 0-7.8 0zm22.8 0l89.6 71.9c3.2 4 .8 10.6-3.9 10.6h-89.2c-4.7 0-7.1-6.6-3.9-10.6l-.4-71.9a4.77 4.77 0 0 1 7.8 0z"/><path class="cls-2" d="M96.8 252.8l-19.3 13.3a10 10 0 0 0 5.7 18.2h38.6c9.8 0 13.8-12.7 5.7-18.2l-19.3-13.3a9.93 9.93 0 0 0-11.4 0z"/><path class="cls-3" d="M85.5 141.3l-33.3 99a18 18 0 0 0 17 24h66.6a18 18 0 0 0 17-24l-33.3-99c-5.6-16.1-28.4-16.1-34 0z"/><path class="cls-2" d="M98.8 190.9l-18.3 42.8c-1.5 3.5.5 7.8 3.7 7.8h36.5c3.2 0 5.2-4.3 3.7-7.8l-18.3-42.8c-1.5-3.7-5.7-3.7-7.3 0z"/></svg>