<svg width="26" height="19" viewBox="0 0 26 19" xmlns="http://www.w3.org/2000/svg"><title>icon-chat-game@2x</title><path d="M25.951 15.215c-.044.61-.16 1.203-.404 1.764-.552 1.267-1.714 1.787-3.002 1.34-.708-.247-1.302-.689-1.847-1.192-.833-.768-1.64-1.565-2.467-2.34-.64-.6-1.357-1.09-2.23-1.247a16.836 16.836 0 0 0-2.232-.266c-1.097-.047-2.195-.042-3.288.136-.881.142-1.717.374-2.391.998-.788.73-1.54 1.5-2.345 2.208-.578.508-1.186.999-1.838 1.4-.875.538-1.798.606-2.681-.042C.644 17.547.37 16.926.21 16.249c-.1-.421-.143-1.165-.211-1.593 0-.516.037-1.35.046-1.407.18-1.165.297-2.345.556-3.491.324-1.438.747-2.853 1.158-4.27.312-1.074.705-2.12 1.234-3.11C3.814.847 5.059.033 6.793.001c1.357-.024 2.636.28 3.87.84.723.327 1.466.597 2.28.614 1 .02 1.93-.256 2.849-.608 1.148-.44 2.301-.822 3.56-.746 1.088.066 2.034.44 2.826 1.203.798.766 1.337 1.713 1.679 2.75.447 1.358.831 2.74 1.191 4.125.405 1.554.727 3.128.859 4.736.025.305.042 2.308.042 2.308l.002-.008zM7.398 10.168c1.545.003 2.813-1.227 2.816-2.734.004-1.578-1.24-2.845-2.785-2.838-1.51.007-2.777 1.255-2.786 2.742-.01 1.559 1.224 2.826 2.755 2.83zm11.163-3.715a.928.928 0 1 0 .022-1.856.928.928 0 0 0-.022 1.856zm0 3.715a.928.928 0 1 0 .022-1.857.928.928 0 0 0-.022 1.857zM16.704 8.31a.928.928 0 1 0 .021-1.856.928.928 0 0 0-.02 1.856zm3.715 0a.928.928 0 1 0 .02-1.856.928.928 0 0 0-.02 1.856z" fill="#FFF" fill-rule="evenodd"/></svg>