<svg width="177" height="148" viewBox="0 0 177 148" xmlns="http://www.w3.org/2000/svg"><title>xp-chip</title><g fill="none" fill-rule="evenodd"><path fill="#4C4B4B" d="M10.135 55.938l-6.7-8.52-.241 3.817 6.7 8.52z"/><path fill="#222" d="M101.276 8.749L94.54.775 3.435 47.418l6.7 8.52z"/><path fill="#4F4F4F" d="M101.276 8.749l-.242 3.816-91.14 47.19.241-3.817z"/><path fill="#878787" d="M18.815 51.149l-6.69-8.486.472-.346 6.691 8.486zm8.232-4.155l-6.69-8.486.473-.346 6.69 8.486zm8.233-4.154l-6.69-8.486.471-.346 6.691 8.486zm8.23-4.155L36.82 30.2l.474-.345 6.69 8.486zm9.014-4.533l-6.749-8.443.472-.35 6.748 8.444zm8.202-4.208l-6.749-8.443.472-.35 6.748 8.444zm8.202-4.208l-6.749-8.443.472-.35 6.748 8.443zm8.202-4.208l-6.749-8.443.472-.35 6.748 8.443zm7.706-4.172l-6.749-8.443.472-.349 6.748 8.443zm8.202-4.208L86.29 4.705l.472-.35L93.51 12.8z"/><path fill="#4C4B4B" d="M167.446 89.375l9.587-5.057-1.333 3.585-9.585 5.057z"/><path fill="#222" d="M103.378 9.196l9.396-4.546 64.259 79.668-9.587 5.057z"/><path fill="#4F4F4F" d="M103.378 9.196l-1.33 3.585 64.067 80.179 1.331-3.585z"/><path fill="#878787" d="M161.465 81.47l-.292-.509 9.564-5.03.291.507zm-5.83-7.144l-.292-.508 9.563-5.031.292.508zm-5.831-7.143l-.292-.508 9.564-5.032.291.509zm-5.831-7.143l-.292-.509 9.564-5.031.291.508zm-6.39-7.808l-.288-.51 9.599-4.969.289.511zm-5.781-7.18l-.289-.511 9.6-4.968.288.51zm-5.782-7.181l-.287-.51 9.598-4.969.29.511zm-5.78-7.181l-.289-.51 9.599-4.968.289.51zm-5.344-6.944l-.288-.511 9.599-4.968.289.51zm-5.781-7.181l-.288-.51 9.598-4.969.29.511z"/><path fill="#B55C00" d="M89.606 66.947l-16.831 79.186 94.841-48.916 2.784-13.096zM8.747 49.76L5.963 62.856l66.745 83.263L89.54 66.933z"/><path fill="#FC8A14" d="M75.559 133.037l94.84-48.916L103.654.859 8.814 49.775z"/><path d="M78.207 120.576l-53.395-67.4 76.193-39.856 53.396 67.4-76.194 39.856z" stroke="#FDB951" stroke-width="3" fill="#FC8A14"/><path fill="#4C4B4B" d="M.518 66.348l60.954 76.623.16-3.775L.68 62.572z"/><path fill="#222" d="M71.554 135.607L10.578 59.522l-9.899 3.05 60.953 76.624z"/><path fill="#4C4B4B" d="M61.633 139.196l-.161 3.776 9.92-3.59.161-3.775z"/><path fill="#878787" d="M4.968 72.236l.17-3.964 9.78-3.527.216.543-9.415 3.393-.153 3.588zm5.684 6.916l.17-3.964 9.78-3.527.216.543-9.415 3.395-.153 3.586zm5.661 7.456l.17-3.965 9.78-3.525.216.542-9.415 3.394-.153 3.586zm5.684 6.917l.17-3.966 9.78-3.525.216.542-9.415 3.394-.153 3.587zm5.684 6.915l.17-3.964 9.78-3.526.216.542-9.415 3.394-.153 3.588zm5.684 6.917l.17-3.965 9.78-3.526.216.543-9.414 3.394-.154 3.587zm5.661 7.456l.17-3.964 9.78-3.527.216.542-9.415 3.394-.153 3.588zm5.684 6.916l.17-3.964 9.78-3.527.216.543-9.415 3.395-.153 3.585zm6.234 8.039l.17-3.964 9.78-3.526.215.543-9.414 3.393-.153 3.588zm5.684 6.917l.17-3.964 9.78-3.527.215.543-9.413 3.394-.155 3.587z"/><path fill="#4C4B4B" d="M86.463 144.474l-1.389 3.515 86.85-45.208 1.388-3.515z"/><path fill="#222" d="M78.86 137.16l86.65-44.706 7.803 6.813-86.85 45.207z"/><path fill="#4C4B4B" d="M77.472 140.674l7.602 7.315 1.389-3.515-7.603-7.315z"/><path fill="#878787" d="M165.463 106.35l-.56-.213 1.32-3.34-7.22-6.93.418-.407 7.5 7.2zm-8.005 4.007l-.56-.213 1.32-3.34-7.22-6.93.417-.407 7.5 7.2zm-8.204 4.509l-.56-.214 1.32-3.339-7.22-6.93.417-.407 7.5 7.198zm-8.006 4.006l-.558-.214 1.317-3.339-7.22-6.93.418-.407 7.501 7.199zm-8.006 4.007l-.558-.213 1.318-3.34-7.22-6.93.418-.408 7.5 7.2zm-8.005 4.006l-.559-.213 1.318-3.34-7.22-6.93.418-.407 7.5 7.198zm-8.204 4.509l-.56-.213 1.32-3.34-7.22-6.93.417-.407 7.5 7.199zm-8.006 4.006l-.559-.214 1.319-3.338-7.22-6.93.418-.408 7.5 7.2zm-8.965 4.809l-.56-.213 1.32-3.34-7.22-6.928.417-.41 7.501 7.2zm-8.005 4.006l-.56-.212 1.32-3.34-7.221-6.929.418-.409 7.5 7.2z"/><path d="M49.745 57.745l12.05 15.235 16.841-8.827-12.049-15.235-16.842 8.827zm3.595.764l12.614-6.61 9.087 11.49-12.613 6.61-9.088-11.49z" fill="#FB535A"/><path d="M64.585 49.968l12.049 15.235 16.84-8.827L81.427 41.14l-16.841 8.827zm3.593.764l12.614-6.61 9.088 11.49-12.613 6.61-9.089-11.49z" fill="#FB535A"/><path d="M60.422 71.244l12.049 15.235 16.841-8.827-12.049-15.235-16.84 8.827zm3.595.764l12.613-6.61 9.087 11.49-12.613 6.611-9.087-11.49z" fill="#FB535A"/><path d="M75.26 63.466l12.05 15.236 16.84-8.828-12.048-15.233-16.841 8.825zm3.595.765L91.47 57.62l9.087 11.49-12.613 6.61-9.088-11.49z" fill="#FB535A"/><path d="M71.098 84.744l12.049 15.233 16.84-8.826L87.94 75.917l-16.842 8.827zm3.595.764l12.614-6.612 9.086 11.491-12.613 6.611-9.087-11.49z" fill="#FB535A"/><path d="M85.936 76.966l12.05 15.235 16.84-8.828-12.048-15.234-16.842 8.827zm3.595.764l12.614-6.61 9.088 11.489L98.62 89.22l-9.09-11.49zM79.434 42.185L91.483 57.42l16.841-8.827-12.05-15.235-16.84 8.827zm3.594.764l12.613-6.61 9.088 11.49-12.613 6.611-9.088-11.491z" fill="#FB535A"/><path d="M90.109 55.684l12.049 15.235 16.84-8.827-12.047-15.234-16.842 8.826zm3.595.764l12.614-6.611 9.086 11.491-12.613 6.61-9.087-11.49z" fill="#FB535A"/><path d="M100.785 69.183l12.049 15.235 16.842-8.827-12.05-15.235-16.841 8.827zm3.595.764l12.613-6.61 9.088 11.49-12.614 6.61-9.087-11.49z" fill="#FB535A"/><path fill="#FC8A14" d="M97.03 31.53L46.79 58.14l35.073 44.746 50.241-26.612z"/><path d="M50.345 59.243L82.73 99.8l46.081-23.878-32.385-40.557-46.08 23.878zm30.04 48.117l-40.2-50.636 57.32-29.909 40.201 50.638-57.32 29.907z" fill="#FFF"/><path fill="#FFF" d="M74.129 64.273l12.621 15.03 17.644-8.597-12.622-15.03z"/></g></svg>