<svg id="Layer_1" data-name="Layer 1" xmlns="http://www.w3.org/2000/svg" viewBox="0 0 208.96 310"><defs><style>.cls-1{fill:#fdb732}.cls-1,.cls-3{fill-rule:evenodd}.cls-2{fill:#010101}.cls-3{fill:#e1373e;fill-opacity:.99}.cls-4{fill:#fff}</style></defs><title>DRAGON</title><g id="mustaches1"><path class="cls-1" d="M126.05 146.73s54.27-32.78 62.6 33.06c2.87 22.52-4.28 44.12 20.31 64.1-19.89-4.49-28.17-23.73-31-46.24C169.58 131.8 130 170 130 170z" id="mustache_right2" data-name="mustache right2"/><path class="cls-1" d="M82.9 145.85s-54.26-32.79-62.59 33.06C17.44 201.43 24.58 223 0 243c19.88-4.49 28.17-23.73 31-46.24 8.33-65.85 47.88-27.62 47.88-27.62z" id="mustache_right3" data-name="mustache right3"/></g><g id="horns1"><path class="cls-1" d="M70.09 186.41S22.85 286.11 25.16 310c0 0 47.27-98.32 70.56-102.91z" id="horn_left1" data-name="horn left1"/><path class="cls-1" d="M142.9 186.41s47.23 99.7 44.93 123.59c0 0-47.27-98.32-70.56-102.91z" id="horn_right1" data-name="horn right1"/></g><g id="ship"><path class="cls-2" d="M99.59 221.71L82.5 233.46a8.85 8.85 0 0 0 5 16.14h34.19a8.85 8.85 0 0 0 5-16.14l-17.11-11.75a8.88 8.88 0 0 0-9.99 0z" id="base"/><path class="cls-3" d="M103.16 221.9c-24.39 2.06-42.4 12.64-58.77 25.38-22.61-37.65 26.26-56.62 27.46-112-.4-8.83 1.91-14.72 13.59-15.84 7.2 2.16 8.81 4 17.66 4h.06c8.83.06 11.1-1.82 18.29-4 11.68 1.12 14 7 13.59 15.84 1.2 55.38 55.07 74.35 32.45 112 5.45-4.07-59.1-29.28-64.33-25.38z" id="head"/><g id="center"><path class="cls-4" d="M97.07 229l-29.91-12.11a14.69 14.69 0 0 1-7.93-16.13L80 154.25c1.52-7 8-12 15.6-12h16.6c7.44 0 13.89 4.84 15.53 11.66l22.15 46.64a14.66 14.66 0 0 1-7.82 16.45l-29.65 12a16.74 16.74 0 0 1-15.34 0z" id="poly_white" data-name="poly white"/><path class="cls-2" d="M103.61 211.87l-21.07-14.39a4.83 4.83 0 0 1-1.2-5.3l8.52-22.34a4.54 4.54 0 0 1 4.2-2.91h24.15a4.52 4.52 0 0 1 4.12 2.74l9.33 22.43a4.85 4.85 0 0 1-.87 5.21 4.34 4.34 0 0 1-.58.48l-20.65 14.08a4.39 4.39 0 0 1-5.95 0z" id="poly_black" data-name="poly black"/></g></g></svg>